<svg class="main-svg" xmlns="http://www.w3.org/2000/svg" xmlns:xlink="http://www.w3.org/1999/xlink" width="900" height="450" style="" viewBox="0 0 900 450"><rect x="0" y="0" width="900" height="450" style="fill: rgb(255, 255, 255); fill-opacity: 1;"/><defs id="defs-5c26b8"><g class="clips"><clipPath id="clip5c26b8xyplot" class="plotclip"><rect width="565" height="310"/></clipPath><clipPath class="axesclip" id="clip5c26b8x"><rect x="80" y="0" width="565" height="450"/></clipPath><clipPath class="axesclip" id="clip5c26b8y"><rect x="0" y="60" width="900" height="310"/></clipPath><clipPath class="axesclip" id="clip5c26b8xy"><rect x="80" y="60" width="565" height="310"/></clipPath></g><g class="gradients"/><g class="patterns"/></defs><g class="bglayer"/><g class="layer-below"><g class="imagelayer"/><g class="shapelayer"/></g><g class="cartesianlayer"><g class="subplot xy"><g class="layer-subplot"><g class="shapelayer"/><g class="imagelayer"/></g><g class="minor-gridlayer"><g class="x"/><g class="y"/></g><g class="gridlayer"><g class="x"><path class="xgrid crisp" transform="translate(151.51,0)" d="M0,60v310" style="stroke: rgb(235, 240, 248); stroke-opacity: 1; stroke-width: 1px;"/><path class="xgrid crisp" transform="translate(224.21,0)" d="M0,60v310" style="stroke: rgb(235, 240, 248); stroke-opacity: 1; stroke-width: 1px;"/><path class="xgrid crisp" transform="translate(296.12,0)" d="M0,60v310" style="stroke: rgb(235, 240, 248); stroke-opacity: 1; stroke-width: 1px;"/><path class="xgrid crisp" transform="translate(368.82,0)" d="M0,60v310" style="stroke: rgb(235, 240, 248); stroke-opacity: 1; stroke-width: 1px;"/><path class="xgrid crisp" transform="translate(440.34,0)" d="M0,60v310" style="stroke: rgb(235, 240, 248); stroke-opacity: 1; stroke-width: 1px;"/><path class="xgrid crisp" transform="translate(513.03,0)" d="M0,60v310" style="stroke: rgb(235, 240, 248); stroke-opacity: 1; stroke-width: 1px;"/><path class="xgrid crisp" transform="translate(584.55,0)" d="M0,60v310" style="stroke: rgb(235, 240, 248); stroke-opacity: 1; stroke-width: 1px;"/></g><g class="y"><path class="ygrid crisp" transform="translate(0,345.53)" d="M80,0h565" style="stroke: rgb(235, 240, 248); stroke-opacity: 1; stroke-width: 1px;"/><path class="ygrid crisp" transform="translate(0,304.74)" d="M80,0h565" style="stroke: rgb(235, 240, 248); stroke-opacity: 1; stroke-width: 1px;"/><path class="ygrid crisp" transform="translate(0,263.95)" d="M80,0h565" style="stroke: rgb(235, 240, 248); stroke-opacity: 1; stroke-width: 1px;"/><path class="ygrid crisp" transform="translate(0,223.16)" d="M80,0h565" style="stroke: rgb(235, 240, 248); stroke-opacity: 1; stroke-width: 1px;"/><path class="ygrid crisp" transform="translate(0,182.37)" d="M80,0h565" style="stroke: rgb(235, 240, 248); stroke-opacity: 1; stroke-width: 1px;"/><path class="ygrid crisp" transform="translate(0,141.57999999999998)" d="M80,0h565" style="stroke: rgb(235, 240, 248); stroke-opacity: 1; stroke-width: 1px;"/><path class="ygrid crisp" transform="translate(0,100.78999999999999)" d="M80,0h565" style="stroke: rgb(235, 240, 248); stroke-opacity: 1; stroke-width: 1px;"/></g></g><g class="zerolinelayer"/><path class="xlines-below"/><path class="ylines-below"/><g class="overlines-below"/><g class="xaxislayer-below"/><g class="yaxislayer-below"/><g class="overaxes-below"/><g class="plot" transform="translate(80,60)" clip-path="url(#clip5c26b8xyplot)"><g class="scatterlayer mlayer"><g class="trace scatter trace4580fa" style="stroke-miterlimit: 2; opacity: 1;"><g class="fills"/><g class="errorbars"/><g class="lines"><path class="js-line" d="M0,156.52L23.31,159.05L35.56,156.87L47.41,159.73L59.66,164.65L71.51,167.62L83.76,157.78L96.01,160.7L107.86,166.82L120.11,174.75L131.97,161.23L144.21,152.99L156.46,155.14L167.92,149.44L204.27,135.04L228.37,142.95L240.62,143.42L252.47,142.91L264.72,119.03L276.57,129.96L288.82,146.49L301.07,123.67L312.13,114.32L324.38,115.33L336.23,117.2L348.48,125.6L360.34,116.95L372.58,123.42L384.83,128.35L396.69,138.22L408.93,119.43L420.79,110.23L433.03,95.59L445.28,102.44L456.35,112.74L468.59,110.03L480.45,115.5L492.7,117.64L504.55,105.9L516.8,101.41L529.05,123.42L540.9,110.61L553.15,110.45L565,114.87" style="vector-effect: non-scaling-stroke; fill: none; stroke: rgb(11, 31, 38); stroke-opacity: 1; stroke-width: 2px; opacity: 1;"/></g><g class="points"/><g class="text"/></g><g class="trace scatter tracec2b1ce" style="stroke-miterlimit: 2; opacity: 1;"><g class="fills"/><g class="errorbars"/><g class="lines"><path class="js-line" d="M0,178.55L12.25,184.61L23.31,191.03L35.56,184.45L47.41,186.69L83.76,177.94L96.01,193.37L107.86,194.12L120.11,199.99L131.97,190.55L144.21,172.61L156.46,181.31L167.92,168.93L204.27,128.92L216.12,130.83L240.62,152.64L252.47,152.35L264.72,141.29L276.57,146.09L301.07,139.57L312.13,143.28L336.23,135.58L348.48,134.2L360.34,141.38L372.58,145.85L396.69,163.41L408.93,185.09L433.03,165.96L445.28,169.07L456.35,171.01L468.59,175.75L480.45,177.87L492.7,169.46L504.55,160.6L516.8,165.79L529.05,181.77L540.9,181.64L553.15,178.53L565,184.64" style="vector-effect: non-scaling-stroke; fill: none; stroke: rgb(63, 137, 166); stroke-opacity: 1; stroke-width: 2px; opacity: 1;"/></g><g class="points"/><g class="text"/></g><g class="trace scatter trace285238" style="stroke-miterlimit: 2; opacity: 1;"><g class="fills"/><g class="errorbars"/><g class="lines"><path class="js-line" d="M0,88.45L12.25,81.43L23.31,88.95L35.56,81.69L47.41,92.96L59.66,104.51L71.51,92.78L83.76,96.33L96.01,101.24L107.86,119.21L120.11,141.04L131.97,106.55L144.21,94.22L156.46,101.18L167.92,93.42L204.27,61.92L216.12,74.01L228.37,78.24L240.62,86.35L252.47,82.35L264.72,66.06L276.57,86.6L288.82,98.8L301.07,70.95L312.13,66.06L324.38,66.13L336.23,64.65L348.48,79.98L360.34,77.64L372.58,80.79L384.83,87.87L408.93,105.45L420.79,87.19L433.03,77.95L445.28,80.23L456.35,80.15L468.59,87.5L480.45,88.7L492.7,103.22L504.55,89.65L516.8,87.07L529.05,106.81L540.9,95.37L553.15,98.19L565,96.83" style="vector-effect: non-scaling-stroke; fill: none; stroke: rgb(32, 73, 89); stroke-opacity: 1; stroke-width: 2px; opacity: 1;"/></g><g class="points"/><g class="text"/></g><g class="trace scatter tracebff42f" style="stroke-miterlimit: 2; opacity: 1;"><g class="fills"/><g class="errorbars"/><g class="lines"><path class="js-line" d="M0,225.36L12.25,224.73L23.31,235.09L35.56,228.78L47.41,228.98L59.66,236.29L71.51,231.55L83.76,227.6L96.01,236.47L107.86,228.56L120.11,236.81L131.97,221.73L144.21,207.74L156.46,217.97L167.92,207.85L204.27,201.02L216.12,188.04L240.62,200.6L252.47,199.14L264.72,194.29L276.57,203.82L288.82,208.26L301.07,194.62L312.13,192.36L324.38,190.77L348.48,184.45L360.34,186.04L372.58,191.78L384.83,199.74L396.69,209.85L408.93,234.98L420.79,224.77L433.03,227.43L445.28,229.76L456.35,238.35L468.59,222.17L480.45,221.39L492.7,217.76L504.55,210.04L516.8,207.26L529.05,216.12L540.9,213.04L553.15,219.7L565,219.83" style="vector-effect: non-scaling-stroke; fill: none; stroke: rgb(150, 198, 217); stroke-opacity: 1; stroke-width: 2px; opacity: 1;"/></g><g class="points"/><g class="text"/></g><g class="trace scatter tracedf4fe5" style="stroke-miterlimit: 2; opacity: 1;"><g class="fills"/><g class="errorbars"/><g class="lines"><path class="js-line" d="M0,167.13L12.25,176.55L23.31,186.13L35.56,177.96L47.41,190.36L59.66,191.83L71.51,171.28L83.76,179.9L96.01,211.66L107.86,210.9L120.11,208.94L131.97,187.13L144.21,172.83L156.46,171.5L167.92,142.76L204.27,94.2L216.12,104.94L228.37,120.75L240.62,143.57L252.47,125.98L264.72,99.14L276.57,108.76L288.82,109.81L301.07,106.82L312.13,107.43L324.38,102.42L336.23,99.95L348.48,105.95L360.34,107.38L384.83,156.04L396.69,157.04L408.93,177.24L420.79,143.43L433.03,125.12L445.28,139.66L456.35,155.74L468.59,166.41L480.45,183.99L492.7,177.59L504.55,167.7L516.8,175.88L529.05,208.44L540.9,194.91L553.15,183.22L565,173.97" style="vector-effect: non-scaling-stroke; fill: none; stroke: rgb(208, 233, 242); stroke-opacity: 1; stroke-width: 2px; opacity: 1;"/></g><g class="points"/><g class="text"/></g><g class="trace scatter trace2e111a" style="stroke-miterlimit: 2; opacity: 1;"><g class="fills"/><g class="errorbars"/><g class="lines"><path class="js-line" d="M0,145.34L12.25,146.38L23.31,153.76L35.56,149.22L47.41,154.87L59.66,160.58L71.51,151.41L83.76,151.02L96.01,161.77L107.86,164.26L120.11,171.15L131.97,155.19L144.21,143.03L156.46,146.69L167.92,136L204.27,109.83L216.12,113.17L240.62,127.61L252.47,124.27L264.72,109.04L276.57,118.14L288.82,121.86L301.07,109.77L324.38,109.32L336.23,104.86L348.48,110.78L360.34,110.67L372.58,118.43L384.83,125.17L396.69,131.45L408.93,144.55L420.79,132.11L433.03,122.22L445.28,126.09L456.35,132.25L468.59,132.19L480.45,135.83L492.7,136.06L504.55,127.1L516.8,128.06L529.05,142.59L540.9,135.9L553.15,134.71L565,135.45" style="vector-effect: non-scaling-stroke; fill: none; stroke: rgb(66, 50, 58); stroke-opacity: 1; stroke-dasharray: 3px, 3px; stroke-width: 2px; opacity: 1;"/></g><g class="points"/><g class="text"/></g><g class="trace scatter tracefa864c" style="stroke-miterlimit: 2; opacity: 1;"><g class="fills"/><g class="errorbars"/><g class="lines"><path class="js-line" d="M0,79.91L12.25,77.76L23.31,81.68L47.41,83.89L59.66,80.09L83.76,80.75L96.01,82L107.86,86.11L120.11,89.33L131.97,87.7L144.21,78.11L156.46,78.24L167.92,82.24L204.27,66.91L216.12,64.02L228.37,66.49L240.62,70.5L252.47,77.53L264.72,72.47L276.57,77.8L288.82,75.51L301.07,67.6L312.13,72.94L324.38,71.46L336.23,68.46L348.48,69.82L360.34,66.96L372.58,73.32L384.83,75.84L396.69,76.03L408.93,93.62L420.79,91.58L433.03,80.36L445.28,76.41L456.35,80.17L468.59,78.48L480.45,67.47L492.7,64.75L504.55,60.61L516.8,61.54L529.05,68.98L540.9,68.95L553.15,72.15L565,74.18" style="vector-effect: non-scaling-stroke; fill: none; stroke: rgb(108, 140, 125); stroke-opacity: 1; stroke-width: 2px; opacity: 1;"/></g><g class="points"/><g class="text"/></g><g class="trace scatter trace586e2d" style="stroke-miterlimit: 2; opacity: 1;"><g class="fills"/><g class="errorbars"/><g class="lines"><path class="js-line" d="M0,195.28L12.25,199.68L23.31,202.38L35.56,198.25L47.41,207.45L59.66,216.56L71.51,202.81L83.76,201.49L96.01,216.18L120.11,217.91L131.97,201.64L144.21,188.09L156.46,191.38L167.92,173.86L204.27,131.33L216.12,134.59L228.37,139.14L240.62,146.36L252.47,137.62L264.72,131.79L276.57,134.3L288.82,133.08L301.07,125.28L312.13,127.12L324.38,127.34L336.23,120.19L348.48,130.67L372.58,139.56L384.83,141.9L396.69,147.42L408.93,165.12L420.79,149.31L433.03,143.04L468.59,158.23L480.45,166.83L492.7,169.81L504.55,160.4L516.8,161.57L529.05,168.93L553.15,157.34L565,165.93" style="vector-effect: non-scaling-stroke; fill: none; stroke: rgb(142, 179, 162); stroke-opacity: 1; stroke-width: 2px; opacity: 1;"/></g><g class="points"/><g class="text"/></g><g class="trace scatter traced89eee" style="stroke-miterlimit: 2; opacity: 1;"><g class="fills"/><g class="errorbars"/><g class="lines"><path class="js-line" d="M0,127.19L12.25,126.01L23.31,136.82L35.56,134.1L47.41,140.5L59.66,149.9L71.51,139.16L83.76,136.98L96.01,147.22L107.86,150.5L120.11,159.09L131.97,137.77L144.21,128.43L156.46,128.69L167.92,119.41L204.27,111.77L216.12,113.91L228.37,121.99L240.62,126.18L252.47,126.3L264.72,100.74L276.57,110.91L288.82,117.99L301.07,101.47L312.13,101.59L324.38,101.87L336.23,95.07L348.48,106.64L360.34,102.61L372.58,112.53L384.83,120.51L396.69,126.47L408.93,135.14L420.79,124.7L433.03,110.94L445.28,111.68L456.35,118.25L468.59,118.54L480.45,125.09L492.7,128.07L504.55,115.48L516.8,118.18L529.05,133.16L540.9,122.82L553.15,122.42L565,120.94" style="vector-effect: non-scaling-stroke; fill: none; stroke: rgb(197, 217, 186); stroke-opacity: 1; stroke-width: 2px; opacity: 1;"/></g><g class="points"/><g class="text"/></g><g class="trace scatter trace015b3b" style="stroke-miterlimit: 2; opacity: 1;"><g class="fills"/><g class="errorbars"/><g class="lines"><path class="js-line" d="M0,89.63L12.25,88.87L23.31,102.7L35.56,98.33L47.41,103.27L59.66,117.78L71.51,96.33L83.76,100.39L96.01,107.1L107.86,104.97L120.11,112.47L144.21,92.25L156.46,94.79L167.92,86.07L204.27,57.34L216.12,69.02L228.37,74.92L240.62,78.89L252.47,74.22L264.72,56.56L276.57,65.04L288.82,63.57L301.07,57.93L312.13,60.87L324.38,69.42L336.23,55.15L348.48,59.71L360.34,62.29L372.58,66.41L384.83,61.61L396.69,68.17L408.93,84.87L420.79,82.49L433.03,73.61L445.28,77.08L456.35,80.5L468.59,72.62L480.45,75.68L492.7,76.24L504.55,73.52L516.8,73.87L529.05,75.7L540.9,72.92L565,67.85" style="vector-effect: non-scaling-stroke; fill: none; stroke: rgb(84, 110, 117); stroke-opacity: 1; stroke-width: 2px; opacity: 1;"/></g><g class="points"/><g class="text"/></g></g></g><g class="overplot"/><path class="xlines-above crisp" d="M0,0" style="fill: none;"/><path class="ylines-above crisp" d="M0,0" style="fill: none;"/><g class="overlines-above"/><g class="xaxislayer-above"><g class="xtick"><text text-anchor="middle" x="0" y="383" transform="translate(80,0)" style="font-family: 'Open Sans', verdana, arial, sans-serif; font-size: 12px; fill: rgb(42, 63, 95); fill-opacity: 1; white-space: pre; opacity: 1;">Jan 2019</text></g><g class="xtick"><text text-anchor="middle" x="0" y="383" style="font-family: 'Open Sans', verdana, arial, sans-serif; font-size: 12px; fill: rgb(42, 63, 95); fill-opacity: 1; white-space: pre; opacity: 1;" transform="translate(151.51,0)">Jul 2019</text></g><g class="xtick"><text text-anchor="middle" x="0" y="383" style="font-family: 'Open Sans', verdana, arial, sans-serif; font-size: 12px; fill: rgb(42, 63, 95); fill-opacity: 1; white-space: pre; opacity: 1;" transform="translate(224.21,0)">Jan 2020</text></g><g class="xtick"><text text-anchor="middle" x="0" y="383" style="font-family: 'Open Sans', verdana, arial, sans-serif; font-size: 12px; fill: rgb(42, 63, 95); fill-opacity: 1; white-space: pre; opacity: 1;" transform="translate(296.12,0)">Jul 2020</text></g><g class="xtick"><text text-anchor="middle" x="0" y="383" style="font-family: 'Open Sans', verdana, arial, sans-serif; font-size: 12px; fill: rgb(42, 63, 95); fill-opacity: 1; white-space: pre; opacity: 1;" transform="translate(368.82,0)">Jan 2021</text></g><g class="xtick"><text text-anchor="middle" x="0" y="383" style="font-family: 'Open Sans', verdana, arial, sans-serif; font-size: 12px; fill: rgb(42, 63, 95); fill-opacity: 1; white-space: pre; opacity: 1;" transform="translate(440.34,0)">Jul 2021</text></g><g class="xtick"><text text-anchor="middle" x="0" y="383" style="font-family: 'Open Sans', verdana, arial, sans-serif; font-size: 12px; fill: rgb(42, 63, 95); fill-opacity: 1; white-space: pre; opacity: 1;" transform="translate(513.03,0)">Jan 2022</text></g><g class="xtick"><text text-anchor="middle" x="0" y="383" style="font-family: 'Open Sans', verdana, arial, sans-serif; font-size: 12px; fill: rgb(42, 63, 95); fill-opacity: 1; white-space: pre; opacity: 1;" transform="translate(584.55,0)">Jul 2022</text></g></g><g class="yaxislayer-above"><g class="ytick"><text text-anchor="end" x="79" y="4.199999999999999" transform="translate(0,345.53)" style="font-family: 'Open Sans', verdana, arial, sans-serif; font-size: 12px; fill: rgb(42, 63, 95); fill-opacity: 1; white-space: pre; opacity: 1;">65</text></g><g class="ytick"><text text-anchor="end" x="79" y="4.199999999999999" style="font-family: 'Open Sans', verdana, arial, sans-serif; font-size: 12px; fill: rgb(42, 63, 95); fill-opacity: 1; white-space: pre; opacity: 1;" transform="translate(0,304.74)">70</text></g><g class="ytick"><text text-anchor="end" x="79" y="4.199999999999999" style="font-family: 'Open Sans', verdana, arial, sans-serif; font-size: 12px; fill: rgb(42, 63, 95); fill-opacity: 1; white-space: pre; opacity: 1;" transform="translate(0,263.95)">75</text></g><g class="ytick"><text text-anchor="end" x="79" y="4.199999999999999" style="font-family: 'Open Sans', verdana, arial, sans-serif; font-size: 12px; fill: rgb(42, 63, 95); fill-opacity: 1; white-space: pre; opacity: 1;" transform="translate(0,223.16)">80</text></g><g class="ytick"><text text-anchor="end" x="79" y="4.199999999999999" style="font-family: 'Open Sans', verdana, arial, sans-serif; font-size: 12px; fill: rgb(42, 63, 95); fill-opacity: 1; white-space: pre; opacity: 1;" transform="translate(0,182.37)">85</text></g><g class="ytick"><text text-anchor="end" x="79" y="4.199999999999999" style="font-family: 'Open Sans', verdana, arial, sans-serif; font-size: 12px; fill: rgb(42, 63, 95); fill-opacity: 1; white-space: pre; opacity: 1;" transform="translate(0,141.57999999999998)">90</text></g><g class="ytick"><text text-anchor="end" x="79" y="4.199999999999999" style="font-family: 'Open Sans', verdana, arial, sans-serif; font-size: 12px; fill: rgb(42, 63, 95); fill-opacity: 1; white-space: pre; opacity: 1;" transform="translate(0,100.78999999999999)">95</text></g><g class="ytick"><text text-anchor="end" x="79" y="4.199999999999999" style="font-family: 'Open Sans', verdana, arial, sans-serif; font-size: 12px; fill: rgb(42, 63, 95); fill-opacity: 1; white-space: pre; opacity: 1;" transform="translate(0,60)">100</text></g></g><g class="overaxes-above"/></g></g><g class="polarlayer"/><g class="smithlayer"/><g class="ternarylayer"/><g class="geolayer"/><g class="funnelarealayer"/><g class="pielayer"/><g class="iciclelayer"/><g class="treemaplayer"/><g class="sunburstlayer"/><g class="glimages"/><defs id="topdefs-5c26b8"><g class="clips"/><clipPath id="legend5c26b8"><rect width="232" height="200" x="0" y="0"/></clipPath></defs><g class="layer-above"><g class="imagelayer"/><g class="shapelayer"><path data-index="0" fill-rule="evenodd" d="M257.4,370H536.35V60H257.4Z" clip-path="url(#clip5c26b8x)" style="opacity: 0.1; stroke: rgb(0, 0, 0); stroke-opacity: 0; fill: rgb(11, 31, 38); fill-opacity: 1; stroke-width: 0px;"/></g></g><g class="infolayer"><g class="legend" pointer-events="all" transform="translate(656.3,60)"><rect class="bg" shape-rendering="crispEdges" style="stroke: rgb(68, 68, 68); stroke-opacity: 1; fill: rgb(255, 255, 255); fill-opacity: 1; stroke-width: 0px;" width="232" height="200" x="0" y="0"/><g class="scrollbox" transform="" clip-path="url(#legend5c26b8)"><g class="groups" transform=""><g class="traces" transform="translate(0,14.5)" style="opacity: 1;"><text class="legendtext" text-anchor="start" x="40" y="4.680000000000001" style="font-family: 'Open Sans', verdana, arial, sans-serif; font-size: 12px; fill: rgb(42, 63, 95); fill-opacity: 1; white-space: pre;">Fahrplanangebot</text><g class="layers" style="opacity: 1;"><g class="legendfill"/><g class="legendlines"><path class="js-line" d="M5,0h30" style="fill: none; stroke: rgb(11, 31, 38); stroke-opacity: 1; stroke-width: 2px;"/></g><g class="legendsymbols"><g class="legendpoints"/></g></g><rect class="legendtoggle" x="0" y="-9.5" width="226.4375" height="19" style="fill: rgb(0, 0, 0); fill-opacity: 0;"/></g></g><g class="groups" transform=""><g class="traces" transform="translate(0,33.5)" style="opacity: 1;"><text class="legendtext" text-anchor="start" x="40" y="4.680000000000001" style="font-family: 'Open Sans', verdana, arial, sans-serif; font-size: 12px; fill: rgb(42, 63, 95); fill-opacity: 1; white-space: pre;">Sauberkeit</text><g class="layers" style="opacity: 1;"><g class="legendfill"/><g class="legendlines"><path class="js-line" d="M5,0h30" style="fill: none; stroke: rgb(63, 137, 166); stroke-opacity: 1; stroke-width: 2px;"/></g><g class="legendsymbols"><g class="legendpoints"/></g></g><rect class="legendtoggle" x="0" y="-9.5" width="226.4375" height="19" style="fill: rgb(0, 0, 0); fill-opacity: 0;"/></g></g><g class="groups" transform=""><g class="traces" transform="translate(0,52.5)" style="opacity: 1;"><text class="legendtext" text-anchor="start" x="40" y="4.680000000000001" style="font-family: 'Open Sans', verdana, arial, sans-serif; font-size: 12px; fill: rgb(42, 63, 95); fill-opacity: 1; white-space: pre;">Pünktlichkeit</text><g class="layers" style="opacity: 1;"><g class="legendfill"/><g class="legendlines"><path class="js-line" d="M5,0h30" style="fill: none; stroke: rgb(32, 73, 89); stroke-opacity: 1; stroke-width: 2px;"/></g><g class="legendsymbols"><g class="legendpoints"/></g></g><rect class="legendtoggle" x="0" y="-9.5" width="226.4375" height="19" style="fill: rgb(0, 0, 0); fill-opacity: 0;"/></g></g><g class="groups" transform=""><g class="traces" transform="translate(0,71.5)" style="opacity: 1;"><text class="legendtext" text-anchor="start" x="40" y="4.680000000000001" style="font-family: 'Open Sans', verdana, arial, sans-serif; font-size: 12px; fill: rgb(42, 63, 95); fill-opacity: 1; white-space: pre;">Preis Leistung</text><g class="layers" style="opacity: 1;"><g class="legendfill"/><g class="legendlines"><path class="js-line" d="M5,0h30" style="fill: none; stroke: rgb(150, 198, 217); stroke-opacity: 1; stroke-width: 2px;"/></g><g class="legendsymbols"><g class="legendpoints"/></g></g><rect class="legendtoggle" x="0" y="-9.5" width="226.4375" height="19" style="fill: rgb(0, 0, 0); fill-opacity: 0;"/></g></g><g class="groups" transform=""><g class="traces" transform="translate(0,90.5)" style="opacity: 1;"><text class="legendtext" text-anchor="start" x="40" y="4.680000000000001" style="font-family: 'Open Sans', verdana, arial, sans-serif; font-size: 12px; fill: rgb(42, 63, 95); fill-opacity: 1; white-space: pre;">Platzangebot</text><g class="layers" style="opacity: 1;"><g class="legendfill"/><g class="legendlines"><path class="js-line" d="M5,0h30" style="fill: none; stroke: rgb(208, 233, 242); stroke-opacity: 1; stroke-width: 2px;"/></g><g class="legendsymbols"><g class="legendpoints"/></g></g><rect class="legendtoggle" x="0" y="-9.5" width="226.4375" height="19" style="fill: rgb(0, 0, 0); fill-opacity: 0;"/></g></g><g class="groups" transform=""><g class="traces" transform="translate(0,109.5)" style="opacity: 1;"><text class="legendtext" text-anchor="start" x="40" y="4.680000000000001" style="font-family: 'Open Sans', verdana, arial, sans-serif; font-size: 12px; fill: rgb(42, 63, 95); fill-opacity: 1; white-space: pre;">Durchschnitt</text><g class="layers" style="opacity: 1;"><g class="legendfill"/><g class="legendlines"><path class="js-line" d="M5,0h30" style="fill: none; stroke: rgb(66, 50, 58); stroke-opacity: 1; stroke-dasharray: 3px, 3px; stroke-width: 2px;"/></g><g class="legendsymbols"><g class="legendpoints"/></g></g><rect class="legendtoggle" x="0" y="-9.5" width="226.4375" height="19" style="fill: rgb(0, 0, 0); fill-opacity: 0;"/></g></g><g class="groups" transform=""><g class="traces" transform="translate(0,128.5)" style="opacity: 1;"><text class="legendtext" text-anchor="start" x="40" y="4.680000000000001" style="font-family: 'Open Sans', verdana, arial, sans-serif; font-size: 12px; fill: rgb(42, 63, 95); fill-opacity: 1; white-space: pre;">Sicherheitsempfinden</text><g class="layers" style="opacity: 1;"><g class="legendfill"/><g class="legendlines"><path class="js-line" d="M5,0h30" style="fill: none; stroke: rgb(108, 140, 125); stroke-opacity: 1; stroke-width: 2px;"/></g><g class="legendsymbols"><g class="legendpoints"/></g></g><rect class="legendtoggle" x="0" y="-9.5" width="226.4375" height="19" style="fill: rgb(0, 0, 0); fill-opacity: 0;"/></g></g><g class="groups" transform=""><g class="traces" transform="translate(0,147.5)" style="opacity: 1;"><text class="legendtext" text-anchor="start" x="40" y="4.680000000000001" style="font-family: 'Open Sans', verdana, arial, sans-serif; font-size: 12px; fill: rgb(42, 63, 95); fill-opacity: 1; white-space: pre;">Ausstattung des Zuges</text><g class="layers" style="opacity: 1;"><g class="legendfill"/><g class="legendlines"><path class="js-line" d="M5,0h30" style="fill: none; stroke: rgb(142, 179, 162); stroke-opacity: 1; stroke-width: 2px;"/></g><g class="legendsymbols"><g class="legendpoints"/></g></g><rect class="legendtoggle" x="0" y="-9.5" width="226.4375" height="19" style="fill: rgb(0, 0, 0); fill-opacity: 0;"/></g></g><g class="groups" transform=""><g class="traces" transform="translate(0,166.5)" style="opacity: 1;"><text class="legendtext" text-anchor="start" x="40" y="4.680000000000001" style="font-family: 'Open Sans', verdana, arial, sans-serif; font-size: 12px; fill: rgb(42, 63, 95); fill-opacity: 1; white-space: pre;">Spontane Gesamtzufriedenheit</text><g class="layers" style="opacity: 1;"><g class="legendfill"/><g class="legendlines"><path class="js-line" d="M5,0h30" style="fill: none; stroke: rgb(197, 217, 186); stroke-opacity: 1; stroke-width: 2px;"/></g><g class="legendsymbols"><g class="legendpoints"/></g></g><rect class="legendtoggle" x="0" y="-9.5" width="226.4375" height="19" style="fill: rgb(0, 0, 0); fill-opacity: 0;"/></g></g><g class="groups" transform=""><g class="traces" transform="translate(0,185.5)" style="opacity: 1;"><text class="legendtext" text-anchor="start" x="40" y="4.680000000000001" style="font-family: 'Open Sans', verdana, arial, sans-serif; font-size: 12px; fill: rgb(42, 63, 95); fill-opacity: 1; white-space: pre;">Kundenbegleiter</text><g class="layers" style="opacity: 1;"><g class="legendfill"/><g class="legendlines"><path class="js-line" d="M5,0h30" style="fill: none; stroke: rgb(84, 110, 117); stroke-opacity: 1; stroke-width: 2px;"/></g><g class="legendsymbols"><g class="legendpoints"/></g></g><rect class="legendtoggle" x="0" y="-9.5" width="226.4375" height="19" style="fill: rgb(0, 0, 0); fill-opacity: 0;"/></g></g></g><rect class="scrollbar" rx="20" ry="3" width="0" height="0" style="fill: rgb(128, 139, 164); fill-opacity: 1;" x="0" y="0"/></g><g class="g-gtitle"><text class="gtitle" x="45" y="30" text-anchor="start" dy="0em" style="font-family: 'Open Sans', verdana, arial, sans-serif; font-size: 17px; fill: rgb(42, 63, 95); opacity: 1; font-weight: normal; white-space: pre;">Zufriedenheit mit verschiedenen Aspekten im zeitlichen Verlauf</text></g><g class="g-xtitle"/><g class="g-ytitle"><text class="ytitle" transform="rotate(-90,31.809375000000003,215)" x="31.809375000000003" y="215" text-anchor="middle" style="font-family: 'Open Sans', verdana, arial, sans-serif; font-size: 14px; fill: rgb(42, 63, 95); opacity: 1; font-weight: normal; white-space: pre;">Zufriedenheit</text></g><g class="annotation" data-index="0" style="opacity: 1;"><g class="annotation-text-g" transform="rotate(0,474.35,68)"><g class="cursor-pointer" transform="translate(412,60)"><rect class="bg" x="0.5" y="0.5" width="123" height="15" style="stroke-width: 1px; stroke: rgb(0, 0, 0); stroke-opacity: 0; fill: rgb(0, 0, 0); fill-opacity: 0;"/><text class="annotation-text" text-anchor="middle" x="61.953125" y="12" style="font-family: 'Open Sans', verdana, arial, sans-serif; font-size: 10px; fill: rgb(11, 31, 38); fill-opacity: 1; white-space: pre;">COVID-19 Massnahmen</text></g></g></g></g></svg>