<svg class="main-svg" xmlns="http://www.w3.org/2000/svg" xmlns:xlink="http://www.w3.org/1999/xlink" width="900" height="450" style="" viewBox="0 0 900 450"><rect x="0" y="0" width="900" height="450" style="fill: rgb(255, 255, 255); fill-opacity: 1;"/><defs id="defs-f5be35"><g class="clips"><clipPath id="clipf5be35xyplot" class="plotclip"><rect width="565" height="310"/></clipPath><clipPath class="axesclip" id="clipf5be35x"><rect x="80" y="0" width="565" height="450"/></clipPath><clipPath class="axesclip" id="clipf5be35y"><rect x="0" y="60" width="900" height="310"/></clipPath><clipPath class="axesclip" id="clipf5be35xy"><rect x="80" y="60" width="565" height="310"/></clipPath></g><g class="gradients"/><g class="patterns"/></defs><g class="bglayer"><rect class="bg" x="80" y="60" width="565" height="310" style="fill: rgb(229, 236, 246); fill-opacity: 1; stroke-width: 0;"/></g><g class="layer-below"><g class="imagelayer"/><g class="shapelayer"/></g><g class="cartesianlayer"><g class="subplot xy"><g class="layer-subplot"><g class="shapelayer"/><g class="imagelayer"/></g><g class="minor-gridlayer"><g class="x"/><g class="y"/></g><g class="gridlayer"><g class="x"><path class="xgrid crisp" transform="translate(151.51,0)" d="M0,60v310" style="stroke: rgb(255, 255, 255); stroke-opacity: 1; stroke-width: 1px;"/><path class="xgrid crisp" transform="translate(224.21,0)" d="M0,60v310" style="stroke: rgb(255, 255, 255); stroke-opacity: 1; stroke-width: 1px;"/><path class="xgrid crisp" transform="translate(296.12,0)" d="M0,60v310" style="stroke: rgb(255, 255, 255); stroke-opacity: 1; stroke-width: 1px;"/><path class="xgrid crisp" transform="translate(368.82,0)" d="M0,60v310" style="stroke: rgb(255, 255, 255); stroke-opacity: 1; stroke-width: 1px;"/><path class="xgrid crisp" transform="translate(440.34,0)" d="M0,60v310" style="stroke: rgb(255, 255, 255); stroke-opacity: 1; stroke-width: 1px;"/><path class="xgrid crisp" transform="translate(513.03,0)" d="M0,60v310" style="stroke: rgb(255, 255, 255); stroke-opacity: 1; stroke-width: 1px;"/><path class="xgrid crisp" transform="translate(584.55,0)" d="M0,60v310" style="stroke: rgb(255, 255, 255); stroke-opacity: 1; stroke-width: 1px;"/></g><g class="y"><path class="ygrid crisp" transform="translate(0,350.63)" d="M80,0h565" style="stroke: rgb(255, 255, 255); stroke-opacity: 1; stroke-width: 1px;"/><path class="ygrid crisp" transform="translate(0,302.19)" d="M80,0h565" style="stroke: rgb(255, 255, 255); stroke-opacity: 1; stroke-width: 1px;"/><path class="ygrid crisp" transform="translate(0,253.75)" d="M80,0h565" style="stroke: rgb(255, 255, 255); stroke-opacity: 1; stroke-width: 1px;"/><path class="ygrid crisp" transform="translate(0,205.31)" d="M80,0h565" style="stroke: rgb(255, 255, 255); stroke-opacity: 1; stroke-width: 1px;"/><path class="ygrid crisp" transform="translate(0,156.88)" d="M80,0h565" style="stroke: rgb(255, 255, 255); stroke-opacity: 1; stroke-width: 1px;"/><path class="ygrid crisp" transform="translate(0,108.44)" d="M80,0h565" style="stroke: rgb(255, 255, 255); stroke-opacity: 1; stroke-width: 1px;"/></g></g><g class="zerolinelayer"/><path class="xlines-below"/><path class="ylines-below"/><g class="overlines-below"/><g class="xaxislayer-below"/><g class="yaxislayer-below"/><g class="overaxes-below"/><g class="plot" transform="translate(80,60)" clip-path="url(#clipf5be35xyplot)"><g class="scatterlayer mlayer"><g class="trace scatter trace317113" style="stroke-miterlimit: 2; opacity: 1;"><g class="fills"/><g class="errorbars"/><g class="lines"><path class="js-line" d="M0,185.86L23.31,188.87L35.56,186.29L47.41,189.67L59.66,195.52L71.51,199.05L83.76,187.36L96.01,190.84L107.86,198.1L120.11,207.52L131.97,191.47L144.21,181.67L156.46,184.23L167.92,177.46L204.27,160.36L228.37,169.75L240.62,170.31L252.47,169.71L264.72,141.34L276.57,154.33L288.82,173.96L301.07,146.86L312.13,135.76L324.38,136.96L336.23,139.17L348.48,149.15L360.34,138.88L372.58,146.56L384.83,152.41L396.69,164.13L408.93,141.82L420.79,130.9L433.03,113.51L445.28,121.65L456.35,133.88L468.59,130.66L480.45,137.15L492.7,139.69L504.55,125.76L516.8,120.42L529.05,146.56L540.9,131.35L553.15,131.16L565,136.41" style="vector-effect: non-scaling-stroke; fill: none; stroke: rgb(73, 120, 127); stroke-opacity: 1; stroke-width: 1.5px; opacity: 1;"/></g><g class="points"/><g class="text"/></g><g class="trace scatter trace6016f2" style="stroke-miterlimit: 2; opacity: 1;"><g class="fills"/><g class="errorbars"/><g class="lines"><path class="js-line" d="M0,212.03L12.25,219.23L23.31,226.85L35.56,219.04L47.41,221.7L83.76,211.3L96.01,229.63L107.86,230.52L120.11,237.49L131.97,226.28L144.21,204.97L156.46,215.3L167.92,200.61L204.27,153.09L216.12,155.36L240.62,181.26L252.47,180.92L264.72,167.78L276.57,173.48L288.82,170.06L301.07,165.74L312.13,170.14L324.38,165.21L336.23,161L348.48,159.36L360.34,167.89L372.58,173.19L396.69,194.05L408.93,219.8L433.03,197.08L445.28,200.77L456.35,203.08L468.59,208.7L480.45,211.21L492.7,201.23L504.55,190.71L516.8,196.88L529.05,215.86L540.9,215.7L553.15,212L565,219.26" style="vector-effect: non-scaling-stroke; fill: none; stroke: rgb(169, 98, 98); stroke-opacity: 1; stroke-width: 1.5px; opacity: 1;"/></g><g class="points"/><g class="text"/></g><g class="trace scatter tracec86eae" style="stroke-miterlimit: 2; opacity: 1;"><g class="fills"/><g class="errorbars"/><g class="lines"><path class="js-line" d="M0,105.03L12.25,96.7L23.31,105.63L35.56,97.01L47.41,110.39L59.66,124.11L71.51,110.18L83.76,114.4L96.01,120.22L107.86,141.57L120.11,167.49L131.97,126.52L144.21,111.89L156.46,120.15L167.92,110.93L204.27,73.54L216.12,87.88L228.37,92.91L240.62,102.54L252.47,97.79L264.72,78.45L276.57,102.84L288.82,117.32L301.07,84.26L312.13,78.45L324.38,78.53L336.23,76.77L348.48,94.98L360.34,92.2L372.58,95.94L384.83,104.35L408.93,125.22L420.79,103.54L433.03,92.57L445.28,95.27L456.35,95.18L468.59,103.91L480.45,105.33L492.7,122.58L504.55,106.46L516.8,103.4L529.05,126.84L540.9,113.25L553.15,116.6L565,114.99" style="vector-effect: non-scaling-stroke; fill: none; stroke: rgb(240, 105, 105); stroke-opacity: 1; stroke-width: 1.5px; opacity: 1;"/></g><g class="points"/><g class="text"/></g><g class="trace scatter trace35f1bf" style="stroke-miterlimit: 2; opacity: 1;"><g class="fills"/><g class="errorbars"/><g class="lines"><path class="js-line" d="M0,267.62L12.25,266.87L23.31,279.17L35.56,271.68L47.41,271.91L59.66,280.6L71.51,274.97L83.76,270.28L96.01,280.8L107.86,271.41L120.11,281.21L131.97,263.31L144.21,246.69L156.46,258.84L167.92,246.82L204.27,238.71L216.12,223.3L240.62,238.21L252.47,236.47L264.72,230.72L276.57,242.04L288.82,247.31L301.07,231.11L312.13,228.43L324.38,226.54L348.48,219.03L360.34,220.92L372.58,227.74L384.83,237.19L396.69,249.19L408.93,279.04L420.79,266.92L433.03,270.08L445.28,272.84L456.35,283.04L468.59,263.83L480.45,262.9L492.7,258.59L504.55,249.42L516.8,246.12L529.05,256.65L540.9,252.99L553.15,260.9L565,261.05" style="vector-effect: non-scaling-stroke; fill: none; stroke: rgb(196, 153, 202); stroke-opacity: 1; stroke-width: 1.5px; opacity: 1;"/></g><g class="points"/><g class="text"/></g><g class="trace scatter trace459242" style="stroke-miterlimit: 2; opacity: 1;"><g class="fills"/><g class="errorbars"/><g class="lines"><path class="js-line" d="M0,198.47L12.25,209.65L23.31,221.03L35.56,211.32L47.41,226.05L59.66,227.79L71.51,203.4L83.76,213.63L96.01,251.35L107.86,250.44L120.11,248.11L131.97,222.22L144.21,205.24L156.46,203.65L167.92,169.53L204.27,111.86L216.12,124.62L228.37,143.4L240.62,170.49L252.47,149.6L264.72,117.73L276.57,129.15L288.82,130.4L301.07,126.85L312.13,127.57L324.38,121.63L336.23,118.69L348.48,125.82L360.34,127.52L384.83,185.3L396.69,186.48L408.93,210.47L420.79,170.33L433.03,148.58L445.28,165.85L456.35,184.94L468.59,197.61L480.45,218.49L492.7,210.88L504.55,199.14L516.8,208.86L529.05,247.53L540.9,231.45L553.15,217.58L565,206.59" style="vector-effect: non-scaling-stroke; fill: none; stroke: rgb(237, 177, 131); stroke-opacity: 1; stroke-width: 1.5px; opacity: 1;"/></g><g class="points"/><g class="text"/></g><g class="trace scatter trace58b27c" style="stroke-miterlimit: 2; opacity: 1;"><g class="fills"/><g class="errorbars"/><g class="lines"><path class="js-line" d="M0,172.59L12.25,173.83L23.31,182.59L35.56,177.2L47.41,183.91L59.66,190.68L71.51,179.8L83.76,179.33L96.01,192.1L107.86,195.05L120.11,203.24L131.97,184.29L144.21,169.85L156.46,174.19L167.92,161.5L204.27,130.42L216.12,134.39L240.62,151.54L252.47,147.56L264.72,129.49L276.57,140.29L288.82,144.71L301.07,130.35L324.38,129.82L336.23,124.53L348.48,131.55L360.34,131.42L372.58,140.63L384.83,148.64L396.69,156.1L408.93,171.65L420.79,156.88L433.03,145.14L445.28,149.73L456.35,157.04L468.59,156.98L480.45,161.3L492.7,161.57L504.55,150.93L516.8,152.08L529.05,169.33L540.9,161.38L553.15,159.97L565,160.85" style="vector-effect: non-scaling-stroke; fill: none; stroke: rgb(182, 214, 204); stroke-opacity: 1; stroke-dasharray: 3px, 3px; stroke-width: 1.5px; opacity: 1;"/></g><g class="points"/><g class="text"/></g><g class="trace scatter tracec62c11" style="stroke-miterlimit: 2; opacity: 1;"><g class="fills"/><g class="errorbars"/><g class="lines"><path class="js-line" d="M0,94.89L12.25,92.34L23.31,97L47.41,99.61L59.66,95.1L83.76,95.89L96.01,97.38L107.86,102.26L120.11,106.08L131.97,104.14L144.21,92.75L156.46,92.92L167.92,97.65L204.27,79.46L216.12,76.02L228.37,78.96L240.62,83.72L252.47,92.06L264.72,86.06L276.57,92.39L288.82,89.66L301.07,80.28L312.13,86.61L324.38,84.86L336.23,81.29L348.48,82.91L360.34,79.51L372.58,87.07L384.83,90.06L396.69,90.29L408.93,111.17L420.79,108.75L433.03,95.43L445.28,90.73L456.35,95.2L468.59,93.19L480.45,80.12L492.7,76.89L504.55,71.97L516.8,73.08L529.05,81.91L540.9,81.88L553.15,85.68L565,88.09" style="vector-effect: non-scaling-stroke; fill: none; stroke: rgb(157, 110, 148); stroke-opacity: 1; stroke-width: 1.5px; opacity: 1;"/></g><g class="points"/><g class="text"/></g><g class="trace scatter tracef50207" style="stroke-miterlimit: 2; opacity: 1;"><g class="fills"/><g class="errorbars"/><g class="lines"><path class="js-line" d="M0,231.89L12.25,237.12L23.31,240.33L35.56,235.42L47.41,246.35L59.66,257.16L71.51,240.83L83.76,239.27L96.01,256.71L120.11,258.77L131.97,239.44L144.21,223.35L156.46,227.26L167.92,206.46L204.27,155.96L216.12,159.82L228.37,165.23L240.62,173.8L252.47,163.42L264.72,156.5L276.57,159.48L288.82,158.03L301.07,148.77L312.13,150.96L324.38,151.22L336.23,142.73L348.48,155.17L372.58,165.73L384.83,168.5L396.69,175.06L408.93,196.08L420.79,177.3L433.03,169.86L468.59,187.9L480.45,198.11L492.7,201.66L504.55,190.48L516.8,191.86L529.05,200.61L540.9,193.38L553.15,186.84L565,197.04" style="vector-effect: non-scaling-stroke; fill: none; stroke: rgb(79, 178, 134); stroke-opacity: 1; stroke-width: 1.5px; opacity: 1;"/></g><g class="points"/><g class="text"/></g><g class="trace scatter trace18bc7b" style="stroke-miterlimit: 2; opacity: 1;"><g class="fills"/><g class="errorbars"/><g class="lines"><path class="js-line" d="M0,151.04L12.25,149.64L23.31,162.48L35.56,159.24L47.41,166.85L59.66,178L71.51,165.25L83.76,162.67L96.01,174.83L107.86,178.72L120.11,188.92L131.97,163.61L144.21,152.52L156.46,152.82L167.92,141.79L204.27,132.72L216.12,135.27L228.37,144.87L240.62,149.84L252.47,149.98L264.72,119.63L276.57,131.7L288.82,140.11L301.07,120.49L312.13,120.63L324.38,120.97L336.23,112.9L348.48,126.64L360.34,121.85L372.58,133.63L384.83,143.11L396.69,150.19L408.93,160.47L420.79,148.08L433.03,131.74L445.28,132.62L456.35,140.42L468.59,140.77L480.45,148.54L492.7,152.08L504.55,137.13L516.8,140.34L529.05,158.13L540.9,145.84L553.15,145.37L565,143.62" style="vector-effect: non-scaling-stroke; fill: none; stroke: rgb(135, 160, 124); stroke-opacity: 1; stroke-width: 1.5px; opacity: 1;"/></g><g class="points"/><g class="text"/></g><g class="trace scatter trace2082dd" style="stroke-miterlimit: 2; opacity: 1;"><g class="fills"/><g class="errorbars"/><g class="lines"><path class="js-line" d="M0,106.44L12.25,105.54L23.31,121.96L35.56,116.77L47.41,122.63L59.66,139.87L71.51,114.39L83.76,119.21L96.01,127.19L107.86,124.65L120.11,133.56L144.21,109.54L156.46,112.56L167.92,102.21L204.27,68.09L216.12,81.96L228.37,88.96L240.62,93.68L252.47,88.14L264.72,67.17L276.57,77.24L288.82,75.49L301.07,68.79L312.13,72.28L324.38,82.43L336.23,65.49L348.48,70.9L360.34,73.97L372.58,78.87L384.83,73.17L396.69,80.96L408.93,100.79L420.79,97.95L433.03,87.41L445.28,91.53L456.35,95.59L468.59,86.24L480.45,89.87L492.7,90.53L504.55,87.31L516.8,87.73L529.05,89.89L540.9,86.59L565,80.57" style="vector-effect: non-scaling-stroke; fill: none; stroke: rgb(116, 164, 188); stroke-opacity: 1; stroke-width: 1.5px; opacity: 1;"/></g><g class="points"/><g class="text"/></g></g></g><g class="overplot"/><path class="xlines-above crisp" d="M0,0" style="fill: none;"/><path class="ylines-above crisp" d="M0,0" style="fill: none;"/><g class="overlines-above"/><g class="xaxislayer-above"><g class="xtick"><text text-anchor="middle" x="0" y="383" transform="translate(80,0)" style="font-family: 'Open Sans', verdana, arial, sans-serif; font-size: 12px; fill: rgb(42, 63, 95); fill-opacity: 1; white-space: pre; opacity: 1;">Jan 2019</text></g><g class="xtick"><text text-anchor="middle" x="0" y="383" style="font-family: 'Open Sans', verdana, arial, sans-serif; font-size: 12px; fill: rgb(42, 63, 95); fill-opacity: 1; white-space: pre; opacity: 1;" transform="translate(151.51,0)">Jul 2019</text></g><g class="xtick"><text text-anchor="middle" x="0" y="383" style="font-family: 'Open Sans', verdana, arial, sans-serif; font-size: 12px; fill: rgb(42, 63, 95); fill-opacity: 1; white-space: pre; opacity: 1;" transform="translate(224.21,0)">Jan 2020</text></g><g class="xtick"><text text-anchor="middle" x="0" y="383" style="font-family: 'Open Sans', verdana, arial, sans-serif; font-size: 12px; fill: rgb(42, 63, 95); fill-opacity: 1; white-space: pre; opacity: 1;" transform="translate(296.12,0)">Jul 2020</text></g><g class="xtick"><text text-anchor="middle" x="0" y="383" style="font-family: 'Open Sans', verdana, arial, sans-serif; font-size: 12px; fill: rgb(42, 63, 95); fill-opacity: 1; white-space: pre; opacity: 1;" transform="translate(368.82,0)">Jan 2021</text></g><g class="xtick"><text text-anchor="middle" x="0" y="383" style="font-family: 'Open Sans', verdana, arial, sans-serif; font-size: 12px; fill: rgb(42, 63, 95); fill-opacity: 1; white-space: pre; opacity: 1;" transform="translate(440.34,0)">Jul 2021</text></g><g class="xtick"><text text-anchor="middle" x="0" y="383" style="font-family: 'Open Sans', verdana, arial, sans-serif; font-size: 12px; fill: rgb(42, 63, 95); fill-opacity: 1; white-space: pre; opacity: 1;" transform="translate(513.03,0)">Jan 2022</text></g><g class="xtick"><text text-anchor="middle" x="0" y="383" style="font-family: 'Open Sans', verdana, arial, sans-serif; font-size: 12px; fill: rgb(42, 63, 95); fill-opacity: 1; white-space: pre; opacity: 1;" transform="translate(584.55,0)">Jul 2022</text></g></g><g class="yaxislayer-above"><g class="ytick"><text text-anchor="end" x="79" y="4.199999999999999" transform="translate(0,350.63)" style="font-family: 'Open Sans', verdana, arial, sans-serif; font-size: 12px; fill: rgb(42, 63, 95); fill-opacity: 1; white-space: pre; opacity: 1;">70</text></g><g class="ytick"><text text-anchor="end" x="79" y="4.199999999999999" style="font-family: 'Open Sans', verdana, arial, sans-serif; font-size: 12px; fill: rgb(42, 63, 95); fill-opacity: 1; white-space: pre; opacity: 1;" transform="translate(0,302.19)">75</text></g><g class="ytick"><text text-anchor="end" x="79" y="4.199999999999999" style="font-family: 'Open Sans', verdana, arial, sans-serif; font-size: 12px; fill: rgb(42, 63, 95); fill-opacity: 1; white-space: pre; opacity: 1;" transform="translate(0,253.75)">80</text></g><g class="ytick"><text text-anchor="end" x="79" y="4.199999999999999" style="font-family: 'Open Sans', verdana, arial, sans-serif; font-size: 12px; fill: rgb(42, 63, 95); fill-opacity: 1; white-space: pre; opacity: 1;" transform="translate(0,205.31)">85</text></g><g class="ytick"><text text-anchor="end" x="79" y="4.199999999999999" style="font-family: 'Open Sans', verdana, arial, sans-serif; font-size: 12px; fill: rgb(42, 63, 95); fill-opacity: 1; white-space: pre; opacity: 1;" transform="translate(0,156.88)">90</text></g><g class="ytick"><text text-anchor="end" x="79" y="4.199999999999999" style="font-family: 'Open Sans', verdana, arial, sans-serif; font-size: 12px; fill: rgb(42, 63, 95); fill-opacity: 1; white-space: pre; opacity: 1;" transform="translate(0,108.44)">95</text></g><g class="ytick"><text text-anchor="end" x="79" y="4.199999999999999" style="font-family: 'Open Sans', verdana, arial, sans-serif; font-size: 12px; fill: rgb(42, 63, 95); fill-opacity: 1; white-space: pre; opacity: 1;" transform="translate(0,60)">100</text></g></g><g class="overaxes-above"/></g></g><g class="polarlayer"/><g class="smithlayer"/><g class="ternarylayer"/><g class="geolayer"/><g class="funnelarealayer"/><g class="pielayer"/><g class="iciclelayer"/><g class="treemaplayer"/><g class="sunburstlayer"/><g class="glimages"/><defs id="topdefs-f5be35"><g class="clips"/><clipPath id="legendf5be35"><rect width="232" height="200" x="0" y="0"/></clipPath></defs><g class="layer-above"><g class="imagelayer"/><g class="shapelayer"><path data-index="0" fill-rule="evenodd" d="M257.4,370H536.35V60H257.4Z" clip-path="url(#clipf5be35x)" style="opacity: 0.1; stroke: rgb(0, 0, 0); stroke-opacity: 0; fill: rgb(11, 31, 38); fill-opacity: 1; stroke-width: 0px;"/></g></g><g class="infolayer"><g class="legend" pointer-events="all" transform="translate(656.3,60)"><rect class="bg" shape-rendering="crispEdges" width="232" height="200" x="0" y="0" style="stroke: rgb(68, 68, 68); stroke-opacity: 1; fill: rgb(255, 255, 255); fill-opacity: 1; stroke-width: 0px;"/><g class="scrollbox" transform="" clip-path="url(#legendf5be35)"><g class="groups" transform=""><g class="traces" transform="translate(0,14.5)" style="opacity: 1;"><text class="legendtext" text-anchor="start" x="40" y="4.680000000000001" style="font-family: 'Open Sans', verdana, arial, sans-serif; font-size: 12px; fill: rgb(42, 63, 95); fill-opacity: 1; white-space: pre;">Fahrplanangebot</text><g class="layers" style="opacity: 1;"><g class="legendfill"/><g class="legendlines"><path class="js-line" d="M5,0h30" style="fill: none; stroke: rgb(73, 120, 127); stroke-opacity: 1; stroke-width: 1.5px;"/></g><g class="legendsymbols"><g class="legendpoints"/></g></g><rect class="legendtoggle" x="0" y="-9.5" width="226.4375" height="19" style="fill: rgb(0, 0, 0); fill-opacity: 0;"/></g></g><g class="groups" transform=""><g class="traces" transform="translate(0,33.5)" style="opacity: 1;"><text class="legendtext" text-anchor="start" x="40" y="4.680000000000001" style="font-family: 'Open Sans', verdana, arial, sans-serif; font-size: 12px; fill: rgb(42, 63, 95); fill-opacity: 1; white-space: pre;">Sauberkeit</text><g class="layers" style="opacity: 1;"><g class="legendfill"/><g class="legendlines"><path class="js-line" d="M5,0h30" style="fill: none; stroke: rgb(169, 98, 98); stroke-opacity: 1; stroke-width: 1.5px;"/></g><g class="legendsymbols"><g class="legendpoints"/></g></g><rect class="legendtoggle" x="0" y="-9.5" width="226.4375" height="19" style="fill: rgb(0, 0, 0); fill-opacity: 0;"/></g></g><g class="groups" transform=""><g class="traces" transform="translate(0,52.5)" style="opacity: 1;"><text class="legendtext" text-anchor="start" x="40" y="4.680000000000001" style="font-family: 'Open Sans', verdana, arial, sans-serif; font-size: 12px; fill: rgb(42, 63, 95); fill-opacity: 1; white-space: pre;">Pünktlichkeit</text><g class="layers" style="opacity: 1;"><g class="legendfill"/><g class="legendlines"><path class="js-line" d="M5,0h30" style="fill: none; stroke: rgb(240, 105, 105); stroke-opacity: 1; stroke-width: 1.5px;"/></g><g class="legendsymbols"><g class="legendpoints"/></g></g><rect class="legendtoggle" x="0" y="-9.5" width="226.4375" height="19" style="fill: rgb(0, 0, 0); fill-opacity: 0;"/></g></g><g class="groups" transform=""><g class="traces" transform="translate(0,71.5)" style="opacity: 1;"><text class="legendtext" text-anchor="start" x="40" y="4.680000000000001" style="font-family: 'Open Sans', verdana, arial, sans-serif; font-size: 12px; fill: rgb(42, 63, 95); fill-opacity: 1; white-space: pre;">Preis Leistung</text><g class="layers" style="opacity: 1;"><g class="legendfill"/><g class="legendlines"><path class="js-line" d="M5,0h30" style="fill: none; stroke: rgb(196, 153, 202); stroke-opacity: 1; stroke-width: 1.5px;"/></g><g class="legendsymbols"><g class="legendpoints"/></g></g><rect class="legendtoggle" x="0" y="-9.5" width="226.4375" height="19" style="fill: rgb(0, 0, 0); fill-opacity: 0;"/></g></g><g class="groups" transform=""><g class="traces" transform="translate(0,90.5)" style="opacity: 1;"><text class="legendtext" text-anchor="start" x="40" y="4.680000000000001" style="font-family: 'Open Sans', verdana, arial, sans-serif; font-size: 12px; fill: rgb(42, 63, 95); fill-opacity: 1; white-space: pre;">Platzangebot</text><g class="layers" style="opacity: 1;"><g class="legendfill"/><g class="legendlines"><path class="js-line" d="M5,0h30" style="fill: none; stroke: rgb(237, 177, 131); stroke-opacity: 1; stroke-width: 1.5px;"/></g><g class="legendsymbols"><g class="legendpoints"/></g></g><rect class="legendtoggle" x="0" y="-9.5" width="226.4375" height="19" style="fill: rgb(0, 0, 0); fill-opacity: 0;"/></g></g><g class="groups" transform=""><g class="traces" transform="translate(0,109.5)" style="opacity: 1;"><text class="legendtext" text-anchor="start" x="40" y="4.680000000000001" style="font-family: 'Open Sans', verdana, arial, sans-serif; font-size: 12px; fill: rgb(42, 63, 95); fill-opacity: 1; white-space: pre;">Durchschnitt</text><g class="layers" style="opacity: 1;"><g class="legendfill"/><g class="legendlines"><path class="js-line" d="M5,0h30" style="fill: none; stroke: rgb(182, 214, 204); stroke-opacity: 1; stroke-dasharray: 3px, 3px; stroke-width: 1.5px;"/></g><g class="legendsymbols"><g class="legendpoints"/></g></g><rect class="legendtoggle" x="0" y="-9.5" width="226.4375" height="19" style="fill: rgb(0, 0, 0); fill-opacity: 0;"/></g></g><g class="groups" transform=""><g class="traces" transform="translate(0,128.5)" style="opacity: 1;"><text class="legendtext" text-anchor="start" x="40" y="4.680000000000001" style="font-family: 'Open Sans', verdana, arial, sans-serif; font-size: 12px; fill: rgb(42, 63, 95); fill-opacity: 1; white-space: pre;">Sicherheitsempfinden</text><g class="layers" style="opacity: 1;"><g class="legendfill"/><g class="legendlines"><path class="js-line" d="M5,0h30" style="fill: none; stroke: rgb(157, 110, 148); stroke-opacity: 1; stroke-width: 1.5px;"/></g><g class="legendsymbols"><g class="legendpoints"/></g></g><rect class="legendtoggle" x="0" y="-9.5" width="226.4375" height="19" style="fill: rgb(0, 0, 0); fill-opacity: 0;"/></g></g><g class="groups" transform=""><g class="traces" transform="translate(0,147.5)" style="opacity: 1;"><text class="legendtext" text-anchor="start" x="40" y="4.680000000000001" style="font-family: 'Open Sans', verdana, arial, sans-serif; font-size: 12px; fill: rgb(42, 63, 95); fill-opacity: 1; white-space: pre;">Ausstattung des Zuges</text><g class="layers" style="opacity: 1;"><g class="legendfill"/><g class="legendlines"><path class="js-line" d="M5,0h30" style="fill: none; stroke: rgb(79, 178, 134); stroke-opacity: 1; stroke-width: 1.5px;"/></g><g class="legendsymbols"><g class="legendpoints"/></g></g><rect class="legendtoggle" x="0" y="-9.5" width="226.4375" height="19" style="fill: rgb(0, 0, 0); fill-opacity: 0;"/></g></g><g class="groups" transform=""><g class="traces" transform="translate(0,166.5)" style="opacity: 1;"><text class="legendtext" text-anchor="start" x="40" y="4.680000000000001" style="font-family: 'Open Sans', verdana, arial, sans-serif; font-size: 12px; fill: rgb(42, 63, 95); fill-opacity: 1; white-space: pre;">Spontane Gesamtzufriedenheit</text><g class="layers" style="opacity: 1;"><g class="legendfill"/><g class="legendlines"><path class="js-line" d="M5,0h30" style="fill: none; stroke: rgb(135, 160, 124); stroke-opacity: 1; stroke-width: 1.5px;"/></g><g class="legendsymbols"><g class="legendpoints"/></g></g><rect class="legendtoggle" x="0" y="-9.5" width="226.4375" height="19" style="fill: rgb(0, 0, 0); fill-opacity: 0;"/></g></g><g class="groups" transform=""><g class="traces" transform="translate(0,185.5)" style="opacity: 1;"><text class="legendtext" text-anchor="start" x="40" y="4.680000000000001" style="font-family: 'Open Sans', verdana, arial, sans-serif; font-size: 12px; fill: rgb(42, 63, 95); fill-opacity: 1; white-space: pre;">Kundenbegleiter</text><g class="layers" style="opacity: 1;"><g class="legendfill"/><g class="legendlines"><path class="js-line" d="M5,0h30" style="fill: none; stroke: rgb(116, 164, 188); stroke-opacity: 1; stroke-width: 1.5px;"/></g><g class="legendsymbols"><g class="legendpoints"/></g></g><rect class="legendtoggle" x="0" y="-9.5" width="226.4375" height="19" style="fill: rgb(0, 0, 0); fill-opacity: 0;"/></g></g></g><rect class="scrollbar" rx="20" ry="3" width="0" height="0" x="0" y="0" style="fill: rgb(128, 139, 164); fill-opacity: 1;"/></g><g class="g-gtitle"><text class="gtitle" x="45" y="30" text-anchor="start" dy="0em" style="font-family: 'Open Sans', verdana, arial, sans-serif; font-size: 17px; fill: rgb(42, 63, 95); opacity: 1; font-weight: normal; white-space: pre;">Zufriedenheit mit verschiedenen Themen im zeitlichen Verlauf</text></g><g class="g-xtitle"/><g class="g-ytitle"><text class="ytitle" transform="rotate(-90,33.209375,215)" x="33.209375" y="215" text-anchor="middle" style="font-family: 'Open Sans', verdana, arial, sans-serif; font-size: 12px; fill: rgb(42, 63, 95); opacity: 1; font-weight: normal; white-space: pre;">Zufriedenheit</text></g><g class="annotation" data-index="0" style="opacity: 1;"><g class="annotation-text-g" transform="rotate(0,474.35,68)"><g class="cursor-pointer" transform="translate(412,60)"><rect class="bg" x="0.5" y="0.5" width="123" height="15" style="stroke-width: 1px; stroke: rgb(0, 0, 0); stroke-opacity: 0; fill: rgb(0, 0, 0); fill-opacity: 0;"/><text class="annotation-text" text-anchor="middle" x="61.953125" y="12" style="font-family: 'Open Sans', verdana, arial, sans-serif; font-size: 10px; fill: rgb(11, 31, 38); fill-opacity: 1; white-space: pre;">COVID-19 Massnahmen</text></g></g></g></g></svg>