<svg class="main-svg" xmlns="http://www.w3.org/2000/svg" xmlns:xlink="http://www.w3.org/1999/xlink" width="700" height="300" style="" viewBox="0 0 700 300"><rect x="0" y="0" width="700" height="300" style="fill: rgb(255, 255, 255); fill-opacity: 1;"/><defs id="defs-1f331d"><g class="clips"><clipPath id="clip1f331dxyplot" class="plotclip"><rect width="430" height="160"/></clipPath><clipPath class="axesclip" id="clip1f331dx"><rect x="80" y="0" width="430" height="300"/></clipPath><clipPath class="axesclip" id="clip1f331dy"><rect x="0" y="60" width="700" height="160"/></clipPath><clipPath class="axesclip" id="clip1f331dxy"><rect x="80" y="60" width="430" height="160"/></clipPath></g><g class="gradients"/><g class="patterns"/></defs><g class="bglayer"/><g class="layer-below"><g class="imagelayer"/><g class="shapelayer"/></g><g class="cartesianlayer"><g class="subplot xy"><g class="layer-subplot"><g class="shapelayer"/><g class="imagelayer"/></g><g class="minor-gridlayer"><g class="x"/><g class="y"/></g><g class="gridlayer"><g class="x"><path class="xgrid crisp" transform="translate(194.65,0)" d="M0,60v160" style="stroke: rgb(235, 240, 248); stroke-opacity: 1; stroke-width: 1px;"/><path class="xgrid crisp" transform="translate(309.61,0)" d="M0,60v160" style="stroke: rgb(235, 240, 248); stroke-opacity: 1; stroke-width: 1px;"/><path class="xgrid crisp" transform="translate(424.25,0)" d="M0,60v160" style="stroke: rgb(235, 240, 248); stroke-opacity: 1; stroke-width: 1px;"/></g><g class="y"><path class="ygrid crisp" transform="translate(0,197.14)" d="M80,0h430" style="stroke: rgb(235, 240, 248); stroke-opacity: 1; stroke-width: 1px;"/><path class="ygrid crisp" transform="translate(0,151.43)" d="M80,0h430" style="stroke: rgb(235, 240, 248); stroke-opacity: 1; stroke-width: 1px;"/><path class="ygrid crisp" transform="translate(0,105.71000000000001)" d="M80,0h430" style="stroke: rgb(235, 240, 248); stroke-opacity: 1; stroke-width: 1px;"/></g></g><g class="zerolinelayer"/><path class="xlines-below"/><path class="ylines-below"/><g class="overlines-below"/><g class="xaxislayer-below"/><g class="yaxislayer-below"/><g class="overaxes-below"/><g class="plot" transform="translate(80,60)" clip-path="url(#clip1f331dxyplot)"><g class="scatterlayer mlayer"><g class="trace scatter trace6b65ba" style="stroke-miterlimit: 2; opacity: 1;"><g class="fills"/><g class="errorbars"/><g class="lines"><path class="js-line" d="M0,87.39L18.53,89.13L28.27,87.91L37.69,89.51L47.43,92.26L56.85,93.93L66.59,88.41L76.33,90.05L85.75,93.48L95.49,97.93L104.91,90.35L114.65,85.73L124.38,86.93L133.49,83.74L152.65,75.58L162.39,75.67L171.81,77.97L181.55,80.1L191.29,80.37L200.71,80.08L210.45,66.7L219.87,72.83L229.61,82.09L239.34,69.3L248.14,64.06L267.3,65.67L277.03,70.38L286.46,65.53L296.19,69.16L305.93,71.92L315.35,77.45L325.09,66.92L334.51,61.77L344.25,53.57L353.99,57.4L362.78,63.18L372.52,61.66L381.94,64.72L391.68,65.92L401.1,59.34L410.84,56.83L420.58,69.16L430,62.07" style="vector-effect: non-scaling-stroke; fill: none; stroke: rgb(11, 31, 38); stroke-opacity: 1; stroke-width: 2px; opacity: 1;"/></g><g class="points"/><g class="text"/></g><g class="trace scatter tracebc1c51" style="stroke-miterlimit: 2; opacity: 1;"><g class="fills"/><g class="errorbars"/><g class="lines"><path class="js-line" d="M0,71.16L9.74,70.61L18.53,76.67L28.27,75.14L37.69,78.73L47.43,84L56.85,77.98L66.59,76.76L76.33,82.5L85.75,84.33L95.49,89.15L104.91,77.2L114.65,71.97L124.38,72.12L133.49,66.91L152.65,53.54L162.39,62.63L171.81,63.83L181.55,68.36L191.29,70.71L200.71,70.77L210.45,56.45L219.87,62.15L229.61,66.12L239.34,56.86L257.87,57.08L267.3,53.28L277.03,59.76L286.46,57.5L296.19,63.06L305.93,67.53L315.35,70.87L325.09,75.73L334.51,69.88L344.25,62.16L353.99,62.58L362.78,66.26L372.52,66.43L381.94,70.1L391.68,71.76L401.1,64.71L410.84,66.23L420.58,74.62L430,68.68" style="vector-effect: non-scaling-stroke; fill: none; stroke: rgb(63, 137, 166); stroke-opacity: 1; stroke-width: 2px; opacity: 1;"/></g><g class="points"/><g class="text"/></g><g class="trace scatter trace026f67" style="stroke-miterlimit: 2; opacity: 1;"><g class="fills"/><g class="errorbars"/><g class="lines"><path class="js-line" d="M0,109.56L18.53,113.41L28.27,111.09L47.43,121.35L56.85,113.65L66.59,112.91L76.33,121.14L95.49,122.11L104.91,112.99L114.65,105.4L124.38,107.24L133.49,97.43L152.65,114.29L162.39,73.59L171.81,75.42L181.55,77.97L191.29,82.01L200.71,77.12L210.45,73.85L219.87,75.26L229.61,74.57L239.34,70.2L248.14,71.23L257.87,71.36L267.3,67.35L277.03,73.22L286.46,75.53L296.19,78.21L305.93,79.51L315.35,82.61L325.09,92.53L334.51,83.67L344.25,80.15L372.52,88.67L381.94,93.48L391.68,95.16L401.1,89.88L410.84,90.54L420.58,94.67L430,91.14" style="vector-effect: non-scaling-stroke; fill: none; stroke: rgb(32, 73, 89); stroke-opacity: 1; stroke-width: 2px; opacity: 1;"/></g><g class="points"/><g class="text"/></g><g class="trace scatter tracef03a1a" style="stroke-miterlimit: 2; opacity: 1;"><g class="fills"/><g class="errorbars"/><g class="lines"><path class="js-line" d="M0,44.71L9.74,43.58L18.53,45.77L37.69,47.01L47.43,44.88L66.59,45.25L76.33,45.95L95.49,50.06L104.91,49.14L114.65,43.77L124.38,43.85L133.49,46.08L152.65,35.11L162.39,37.49L171.81,35.87L181.55,37.26L191.29,39.51L200.71,43.44L210.45,40.61L219.87,43.6L229.61,42.31L239.34,37.88L248.14,40.87L257.87,40.05L267.3,38.36L277.03,39.13L286.46,37.52L296.19,41.09L305.93,42.5L315.35,42.6L325.09,52.46L334.51,51.32L344.25,45.03L353.99,42.82L362.78,44.93L372.52,43.98L381.94,37.81L391.68,36.29L401.1,33.96L410.84,34.48L420.58,38.65L430,38.48" style="vector-effect: non-scaling-stroke; fill: none; stroke: rgb(150, 198, 217); stroke-opacity: 1; stroke-width: 2px; opacity: 1;"/></g><g class="points"/><g class="text"/></g><g class="trace scatter trace981d56" style="stroke-miterlimit: 2; opacity: 1;"><g class="fills"/><g class="errorbars"/><g class="lines"><path class="js-line" d="M0,49.97L9.74,49.8L18.53,57.55L28.27,55.1L37.69,57.87L47.43,66L56.85,53.98L66.59,56.25L76.33,60.02L85.75,58.82L95.49,63.03L114.65,51.69L124.38,53.12L133.49,48.23L152.65,31.61L162.39,32.13L171.81,38.68L181.55,41.98L191.29,44.21L200.71,41.59L210.45,31.7L219.87,36.45L229.61,35.62L239.34,32.46L248.14,34.11L257.87,38.9L267.3,30.91L277.03,33.46L286.46,34.9L296.19,37.22L305.93,34.53L315.35,38.2L325.09,47.56L334.51,46.22L344.25,41.25L362.78,45.11L372.52,40.7L381.94,42.41L391.68,42.72L401.1,41.2L410.84,41.4L420.58,42.42L430,40.8" style="vector-effect: non-scaling-stroke; fill: none; stroke: rgb(208, 233, 242); stroke-opacity: 1; stroke-width: 2px; opacity: 1;"/></g><g class="points"/><g class="text"/></g><g class="trace scatter trace5d6786" style="stroke-miterlimit: 2; opacity: 1;"><g class="fills"/><g class="errorbars"/><g class="lines"><path class="js-line" d="M0,93.58L18.53,104.3L28.27,99.72L37.69,106.67L47.43,107.49L56.85,95.98L66.59,100.81L76.33,118.61L85.75,118.18L95.49,117.08L104.91,104.86L114.65,96.85L124.38,96.1L152.65,47L162.39,52.79L171.81,58.8L181.55,67.67L191.29,80.45L200.71,70.59L210.45,55.56L219.87,60.95L229.61,61.54L239.34,59.86L248.14,60.2L257.87,57.4L267.3,56.01L277.03,59.37L286.46,60.17L296.19,74.07L305.93,87.44L315.35,88L325.09,99.32L334.51,80.37L344.25,70.12L353.99,78.26L362.78,87.27L372.52,93.25L381.94,103.1L391.68,99.51L401.1,93.97L410.84,98.56L420.58,116.81L430,109.5" style="vector-effect: non-scaling-stroke; fill: none; stroke: rgb(66, 50, 58); stroke-opacity: 1; stroke-width: 2px; opacity: 1;"/></g><g class="points"/><g class="text"/></g><g class="trace scatter tracec57012" style="stroke-miterlimit: 2; opacity: 1;"><g class="fills"/><g class="errorbars"/><g class="lines"><path class="js-line" d="M0,125.93L9.74,125.93L18.53,131.74L28.27,128.2L37.69,128.31L47.43,132.41L56.85,129.75L66.59,127.54L76.33,132.51L85.75,128.08L95.49,132.7L114.65,116.41L124.38,122.15L133.49,116.47L152.65,101.9L162.39,112.65L171.81,105.37L191.29,112.41L200.71,111.59L210.45,108.88L219.87,114.22L229.61,116.7L239.34,109.06L267.3,105.08L277.03,103.36L286.46,104.25L296.19,107.47L305.93,111.93L315.35,117.59L325.09,131.68L334.51,125.95L353.99,128.75L362.78,133.56L372.52,124.5L381.94,124.06L391.68,122.03L401.1,117.7L410.84,116.14L420.58,121.11L430,119.42" style="vector-effect: non-scaling-stroke; fill: none; stroke: rgb(108, 140, 125); stroke-opacity: 1; stroke-width: 2px; opacity: 1;"/></g><g class="points"/><g class="text"/></g><g class="trace scatter trace6dc278" style="stroke-miterlimit: 2; opacity: 1;"><g class="fills"/><g class="errorbars"/><g class="lines"><path class="js-line" d="M0,49.86L9.74,45.63L18.53,49.85L28.27,45.78L37.69,52.09L47.43,58.57L56.85,51.99L76.33,56.73L85.75,66.8L95.49,79.04L104.91,59.71L114.65,52.8L124.38,56.7L133.49,52.35L152.65,23.74L162.39,34.7L171.81,41.47L181.55,43.84L191.29,48.39L200.71,46.14L210.45,37.02L219.87,48.53L229.61,55.36L239.34,39.76L248.14,37.02L257.87,37.06L267.3,36.23L277.03,44.82L286.46,43.51L296.19,45.27L305.93,49.24L325.09,59.09L334.51,48.86L344.25,43.68L353.99,44.96L362.78,44.91L372.52,49.03L381.94,49.71L391.68,57.84L401.1,50.24L410.84,48.79L420.58,59.85L430,53.72" style="vector-effect: non-scaling-stroke; fill: none; stroke: rgb(142, 179, 162); stroke-opacity: 1; stroke-width: 2px; opacity: 1;"/></g><g class="points"/><g class="text"/></g><g class="trace scatter traceb2d7c0" style="stroke-miterlimit: 2; opacity: 1;"><g class="fills"/><g class="errorbars"/><g class="lines"><path class="js-line" d="M0,99.9L18.53,107.05L28.27,103.36L37.69,104.62L47.43,102.87L66.59,99.71L76.33,108.36L85.75,108.78L95.49,112.07L104.91,106.78L114.65,96.72L124.38,101.6L133.49,94.66L152.65,67.69L162.39,72.24L171.81,73.31L181.55,79.44L191.29,85.53L200.71,85.37L210.45,79.17L219.87,81.86L239.34,78.21L248.14,80.29L267.3,75.98L277.03,75.2L286.46,79.22L296.19,81.73L315.35,91.57L325.09,103.72L344.25,93L353.99,94.74L362.78,95.83L372.52,98.49L381.94,99.67L391.68,94.96L401.1,89.99L410.84,92.9L420.58,101.86L430,101.76" style="vector-effect: non-scaling-stroke; fill: none; stroke: rgb(197, 217, 186); stroke-opacity: 1; stroke-width: 2px; opacity: 1;"/></g><g class="points"/><g class="text"/></g></g></g><g class="overplot"/><path class="xlines-above crisp" d="M0,0" style="fill: none;"/><path class="ylines-above crisp" d="M0,0" style="fill: none;"/><g class="overlines-above"/><g class="xaxislayer-above"><g class="xtick"><text text-anchor="middle" x="0" y="233" transform="translate(80,0)" style="font-family: 'Open Sans', verdana, arial, sans-serif; font-size: 12px; fill: rgb(42, 63, 95); fill-opacity: 1; white-space: pre; opacity: 1;">2019</text></g><g class="xtick"><text text-anchor="middle" x="0" y="233" style="font-family: 'Open Sans', verdana, arial, sans-serif; font-size: 12px; fill: rgb(42, 63, 95); fill-opacity: 1; white-space: pre; opacity: 1;" transform="translate(194.65,0)">2020</text></g><g class="xtick"><text text-anchor="middle" x="0" y="233" style="font-family: 'Open Sans', verdana, arial, sans-serif; font-size: 12px; fill: rgb(42, 63, 95); fill-opacity: 1; white-space: pre; opacity: 1;" transform="translate(309.61,0)">2021</text></g><g class="xtick"><text text-anchor="middle" x="0" y="233" style="font-family: 'Open Sans', verdana, arial, sans-serif; font-size: 12px; fill: rgb(42, 63, 95); fill-opacity: 1; white-space: pre; opacity: 1;" transform="translate(424.25,0)">2022</text></g></g><g class="yaxislayer-above"><g class="ytick"><text text-anchor="end" x="79" y="4.199999999999999" transform="translate(0,197.14)" style="font-family: 'Open Sans', verdana, arial, sans-serif; font-size: 12px; fill: rgb(42, 63, 95); fill-opacity: 1; white-space: pre; opacity: 1;">70</text></g><g class="ytick"><text text-anchor="end" x="79" y="4.199999999999999" style="font-family: 'Open Sans', verdana, arial, sans-serif; font-size: 12px; fill: rgb(42, 63, 95); fill-opacity: 1; white-space: pre; opacity: 1;" transform="translate(0,151.43)">80</text></g><g class="ytick"><text text-anchor="end" x="79" y="4.199999999999999" style="font-family: 'Open Sans', verdana, arial, sans-serif; font-size: 12px; fill: rgb(42, 63, 95); fill-opacity: 1; white-space: pre; opacity: 1;" transform="translate(0,105.71000000000001)">90</text></g><g class="ytick"><text text-anchor="end" x="79" y="4.199999999999999" style="font-family: 'Open Sans', verdana, arial, sans-serif; font-size: 12px; fill: rgb(42, 63, 95); fill-opacity: 1; white-space: pre; opacity: 1;" transform="translate(0,60)">100</text></g></g><g class="overaxes-above"/></g></g><g class="polarlayer"/><g class="smithlayer"/><g class="ternarylayer"/><g class="geolayer"/><g class="funnelarealayer"/><g class="pielayer"/><g class="iciclelayer"/><g class="treemaplayer"/><g class="sunburstlayer"/><g class="glimages"/><defs id="topdefs-1f331d"><g class="clips"/><clipPath id="legend1f331d"><rect width="169" height="160" x="0" y="0"/></clipPath></defs><g class="layer-above"><g class="imagelayer"/><g class="shapelayer"><path data-index="0" fill-rule="evenodd" d="M218.2,220H452.21V60H218.2Z" clip-path="url(#clip1f331dx)" style="opacity: 0.05; stroke: rgb(0, 0, 0); stroke-opacity: 0; fill: rgb(11, 31, 38); fill-opacity: 1; stroke-width: 0px;"/></g></g><g class="infolayer"><g class="legend" pointer-events="all" transform="translate(518.6,60)"><rect class="bg" shape-rendering="crispEdges" width="169" height="160" x="0" y="0" style="stroke: rgb(68, 68, 68); stroke-opacity: 1; fill: rgb(255, 255, 255); fill-opacity: 1; stroke-width: 0px;"/><g class="scrollbox" transform="" clip-path="url(#legend1f331d)"><g class="groups" transform=""><g class="traces" transform="translate(0,14.5)" style="opacity: 1;"><text class="legendtext" text-anchor="start" x="40" y="4.680000000000001" style="font-family: 'Open Sans', verdana, arial, sans-serif; font-size: 12px; fill: rgb(42, 63, 95); fill-opacity: 1; white-space: pre;">wime_fahrplan</text><g class="layers" style="opacity: 1;"><g class="legendfill"/><g class="legendlines"><path class="js-line" d="M5,0h30" style="fill: none; stroke: rgb(11, 31, 38); stroke-opacity: 1; stroke-width: 2px;"/></g><g class="legendsymbols"><g class="legendpoints"/></g></g><rect class="legendtoggle" x="0" y="-9.5" width="163.875" height="19" style="fill: rgb(0, 0, 0); fill-opacity: 0;"/></g></g><g class="groups" transform=""><g class="traces" transform="translate(0,33.5)" style="opacity: 1;"><text class="legendtext" text-anchor="start" x="40" y="4.680000000000001" style="font-family: 'Open Sans', verdana, arial, sans-serif; font-size: 12px; fill: rgb(42, 63, 95); fill-opacity: 1; white-space: pre;">wime_gesamtzuf</text><g class="layers" style="opacity: 1;"><g class="legendfill"/><g class="legendlines"><path class="js-line" d="M5,0h30" style="fill: none; stroke: rgb(63, 137, 166); stroke-opacity: 1; stroke-width: 2px;"/></g><g class="legendsymbols"><g class="legendpoints"/></g></g><rect class="legendtoggle" x="0" y="-9.5" width="163.875" height="19" style="fill: rgb(0, 0, 0); fill-opacity: 0;"/></g></g><g class="groups" transform=""><g class="traces" transform="translate(0,52.5)" style="opacity: 1;"><text class="legendtext" text-anchor="start" x="40" y="4.680000000000001" style="font-family: 'Open Sans', verdana, arial, sans-serif; font-size: 12px; fill: rgb(42, 63, 95); fill-opacity: 1; white-space: pre;">wime_komfort</text><g class="layers" style="opacity: 1;"><g class="legendfill"/><g class="legendlines"><path class="js-line" d="M5,0h30" style="fill: none; stroke: rgb(32, 73, 89); stroke-opacity: 1; stroke-width: 2px;"/></g><g class="legendsymbols"><g class="legendpoints"/></g></g><rect class="legendtoggle" x="0" y="-9.5" width="163.875" height="19" style="fill: rgb(0, 0, 0); fill-opacity: 0;"/></g></g><g class="groups" transform=""><g class="traces" transform="translate(0,71.5)" style="opacity: 1;"><text class="legendtext" text-anchor="start" x="40" y="4.680000000000001" style="font-family: 'Open Sans', verdana, arial, sans-serif; font-size: 12px; fill: rgb(42, 63, 95); fill-opacity: 1; white-space: pre;">wime_oes_fahrt</text><g class="layers" style="opacity: 1;"><g class="legendfill"/><g class="legendlines"><path class="js-line" d="M5,0h30" style="fill: none; stroke: rgb(150, 198, 217); stroke-opacity: 1; stroke-width: 2px;"/></g><g class="legendsymbols"><g class="legendpoints"/></g></g><rect class="legendtoggle" x="0" y="-9.5" width="163.875" height="19" style="fill: rgb(0, 0, 0); fill-opacity: 0;"/></g></g><g class="groups" transform=""><g class="traces" transform="translate(0,90.5)" style="opacity: 1;"><text class="legendtext" text-anchor="start" x="40" y="4.680000000000001" style="font-family: 'Open Sans', verdana, arial, sans-serif; font-size: 12px; fill: rgb(42, 63, 95); fill-opacity: 1; white-space: pre;">wime_personal</text><g class="layers" style="opacity: 1;"><g class="legendfill"/><g class="legendlines"><path class="js-line" d="M5,0h30" style="fill: none; stroke: rgb(208, 233, 242); stroke-opacity: 1; stroke-width: 2px;"/></g><g class="legendsymbols"><g class="legendpoints"/></g></g><rect class="legendtoggle" x="0" y="-9.5" width="163.875" height="19" style="fill: rgb(0, 0, 0); fill-opacity: 0;"/></g></g><g class="groups" transform=""><g class="traces" transform="translate(0,109.5)" style="opacity: 1;"><text class="legendtext" text-anchor="start" x="40" y="4.680000000000001" style="font-family: 'Open Sans', verdana, arial, sans-serif; font-size: 12px; fill: rgb(42, 63, 95); fill-opacity: 1; white-space: pre;">wime_platzangebot</text><g class="layers" style="opacity: 1;"><g class="legendfill"/><g class="legendlines"><path class="js-line" d="M5,0h30" style="fill: none; stroke: rgb(66, 50, 58); stroke-opacity: 1; stroke-width: 2px;"/></g><g class="legendsymbols"><g class="legendpoints"/></g></g><rect class="legendtoggle" x="0" y="-9.5" width="163.875" height="19" style="fill: rgb(0, 0, 0); fill-opacity: 0;"/></g></g><g class="groups" transform=""><g class="traces" transform="translate(0,128.5)" style="opacity: 1;"><text class="legendtext" text-anchor="start" x="40" y="4.680000000000001" style="font-family: 'Open Sans', verdana, arial, sans-serif; font-size: 12px; fill: rgb(42, 63, 95); fill-opacity: 1; white-space: pre;">wime_preis_leistung</text><g class="layers" style="opacity: 1;"><g class="legendfill"/><g class="legendlines"><path class="js-line" d="M5,0h30" style="fill: none; stroke: rgb(108, 140, 125); stroke-opacity: 1; stroke-width: 2px;"/></g><g class="legendsymbols"><g class="legendpoints"/></g></g><rect class="legendtoggle" x="0" y="-9.5" width="163.875" height="19" style="fill: rgb(0, 0, 0); fill-opacity: 0;"/></g></g><g class="groups" transform=""><g class="traces" transform="translate(0,147.5)" style="opacity: 1;"><text class="legendtext" text-anchor="start" x="40" y="4.680000000000001" style="font-family: 'Open Sans', verdana, arial, sans-serif; font-size: 12px; fill: rgb(42, 63, 95); fill-opacity: 1; white-space: pre;">wime_puenktlich</text><g class="layers" style="opacity: 1;"><g class="legendfill"/><g class="legendlines"><path class="js-line" d="M5,0h30" style="fill: none; stroke: rgb(142, 179, 162); stroke-opacity: 1; stroke-width: 2px;"/></g><g class="legendsymbols"><g class="legendpoints"/></g></g><rect class="legendtoggle" x="0" y="-9.5" width="163.875" height="19" style="fill: rgb(0, 0, 0); fill-opacity: 0;"/></g></g><g class="groups" transform=""><g class="traces" transform="translate(0,166.5)" style="opacity: 1;"><text class="legendtext" text-anchor="start" x="40" y="4.680000000000001" style="font-family: 'Open Sans', verdana, arial, sans-serif; font-size: 12px; fill: rgb(42, 63, 95); fill-opacity: 1; white-space: pre;">wime_sauberkeit</text><g class="layers" style="opacity: 1;"><g class="legendfill"/><g class="legendlines"><path class="js-line" d="M5,0h30" style="fill: none; stroke: rgb(197, 217, 186); stroke-opacity: 1; stroke-width: 2px;"/></g><g class="legendsymbols"><g class="legendpoints"/></g></g><rect class="legendtoggle" x="0" y="-9.5" width="163.875" height="19" style="fill: rgb(0, 0, 0); fill-opacity: 0;"/></g></g></g><rect class="scrollbar" rx="20" ry="3" width="0" height="0" x="0" y="0" style="fill: rgb(128, 139, 164); fill-opacity: 1;"/></g><g class="g-gtitle"><text class="gtitle" x="35" y="30" text-anchor="start" dy="0em" style="font-family: 'Open Sans', verdana, arial, sans-serif; font-size: 17px; fill: rgb(42, 63, 95); opacity: 1; font-weight: normal; white-space: pre;">Zufriedenheit mit verschiedenen Aspekten im zeitlichen Verlauf</text></g><g class="g-xtitle"/><g class="g-ytitle"/><g class="annotation" data-index="0" style="opacity: 1;"><g class="annotation-text-g" transform="rotate(0,234.2,68)"><g class="cursor-pointer" transform="translate(218,60)"><rect class="bg" x="0.5" y="0.5" width="31" height="15" style="stroke-width: 1px; stroke: rgb(0, 0, 0); stroke-opacity: 0; fill: rgb(0, 0, 0); fill-opacity: 0;"/><text class="annotation-text" text-anchor="middle" x="15.984375" y="12" style="font-family: 'Open Sans', verdana, arial, sans-serif; font-size: 10px; fill: rgb(11, 31, 38); fill-opacity: 1; white-space: pre;">Covid</text></g></g></g></g></svg>