<svg class="main-svg" xmlns="http://www.w3.org/2000/svg" xmlns:xlink="http://www.w3.org/1999/xlink" width="1200" height="600" style="" viewBox="0 0 1200 600"><rect x="0" y="0" width="1200" height="600" style="fill: rgb(255, 255, 255); fill-opacity: 1;"/><defs id="defs-1b2c6a"><g class="clips"><clipPath id="clip1b2c6axyplot" class="plotclip"><rect width="921" height="460"/></clipPath><clipPath class="axesclip" id="clip1b2c6ax"><rect x="80" y="0" width="921" height="600"/></clipPath><clipPath class="axesclip" id="clip1b2c6ay"><rect x="0" y="60" width="1200" height="460"/></clipPath><clipPath class="axesclip" id="clip1b2c6axy"><rect x="80" y="60" width="921" height="460"/></clipPath></g><g class="gradients"/><g class="patterns"/></defs><g class="bglayer"/><g class="layer-below"><g class="imagelayer"/><g class="shapelayer"/></g><g class="cartesianlayer"><g class="subplot xy"><g class="layer-subplot"><g class="shapelayer"/><g class="imagelayer"/></g><g class="minor-gridlayer"><g class="x"/><g class="y"/></g><g class="gridlayer"><g class="x"><path class="xgrid crisp" transform="translate(196.57,0)" d="M0,60v460" style="stroke: rgb(235, 240, 248); stroke-opacity: 1; stroke-width: 1px;"/><path class="xgrid crisp" transform="translate(315.08000000000004,0)" d="M0,60v460" style="stroke: rgb(235, 240, 248); stroke-opacity: 1; stroke-width: 1px;"/><path class="xgrid crisp" transform="translate(432.3,0)" d="M0,60v460" style="stroke: rgb(235, 240, 248); stroke-opacity: 1; stroke-width: 1px;"/><path class="xgrid crisp" transform="translate(550.8,0)" d="M0,60v460" style="stroke: rgb(235, 240, 248); stroke-opacity: 1; stroke-width: 1px;"/><path class="xgrid crisp" transform="translate(667.38,0)" d="M0,60v460" style="stroke: rgb(235, 240, 248); stroke-opacity: 1; stroke-width: 1px;"/><path class="xgrid crisp" transform="translate(785.89,0)" d="M0,60v460" style="stroke: rgb(235, 240, 248); stroke-opacity: 1; stroke-width: 1px;"/><path class="xgrid crisp" transform="translate(902.46,0)" d="M0,60v460" style="stroke: rgb(235, 240, 248); stroke-opacity: 1; stroke-width: 1px;"/></g><g class="y"><path class="ygrid crisp" transform="translate(0,483.68)" d="M80,0h921" style="stroke: rgb(235, 240, 248); stroke-opacity: 1; stroke-width: 1px;"/><path class="ygrid crisp" transform="translate(0,423.16)" d="M80,0h921" style="stroke: rgb(235, 240, 248); stroke-opacity: 1; stroke-width: 1px;"/><path class="ygrid crisp" transform="translate(0,362.63)" d="M80,0h921" style="stroke: rgb(235, 240, 248); stroke-opacity: 1; stroke-width: 1px;"/><path class="ygrid crisp" transform="translate(0,302.11)" d="M80,0h921" style="stroke: rgb(235, 240, 248); stroke-opacity: 1; stroke-width: 1px;"/><path class="ygrid crisp" transform="translate(0,241.58)" d="M80,0h921" style="stroke: rgb(235, 240, 248); stroke-opacity: 1; stroke-width: 1px;"/><path class="ygrid crisp" transform="translate(0,181.05)" d="M80,0h921" style="stroke: rgb(235, 240, 248); stroke-opacity: 1; stroke-width: 1px;"/><path class="ygrid crisp" transform="translate(0,120.53)" d="M80,0h921" style="stroke: rgb(235, 240, 248); stroke-opacity: 1; stroke-width: 1px;"/></g></g><g class="zerolinelayer"/><path class="xlines-below"/><path class="ylines-below"/><g class="overlines-below"/><g class="xaxislayer-below"/><g class="yaxislayer-below"/><g class="overaxes-below"/><g class="plot" transform="translate(80,60)" clip-path="url(#clip1b2c6axyplot)"><g class="scatterlayer mlayer"><g class="trace scatter traceaeac0a" style="stroke-miterlimit: 2; opacity: 1;"><g class="fills"/><g class="errorbars"/><g class="lines"><path class="js-line" d="M0,231.41L38,236.01L57.97,232.78L77.29,237.01L97.25,244.32L116.57,248.73L136.54,234.12L156.51,238.46L175.83,247.54L195.79,259.31L215.11,239.25L235.08,227.01L255.05,230.2L273.72,221.75L332.98,200.38L372.26,212.12L392.23,212.81L411.55,212.06L431.52,176.62L450.84,192.85L470.8,217.38L490.77,183.51L508.8,169.64L528.77,171.14L548.09,173.9L568.06,186.37L587.38,173.53L607.34,183.14L627.31,190.45L646.63,205.09L666.6,177.22L685.92,163.57L705.89,141.84L725.85,152.01L743.88,167.29L763.85,163.27L783.17,171.38L803.14,174.56L822.46,157.14L842.43,150.47L862.39,183.13L881.71,164.13L901.68,163.89L921,171.45" style="vector-effect: non-scaling-stroke; fill: none; stroke: rgb(11, 31, 38); stroke-opacity: 1; stroke-width: 2px; opacity: 1;"/></g><g class="points"/><g class="text"/></g><g class="trace scatter trace67cf7d" style="stroke-miterlimit: 2; opacity: 1;"><g class="fills"/><g class="errorbars"/><g class="lines"><path class="js-line" d="M0,264.53L19.97,273.94L38,283.46L57.97,273.71L77.29,277.03L136.54,264.03L156.51,286.94L175.83,288.05L195.79,296.76L215.11,282.76L235.08,256.13L255.05,269.04L273.72,250.67L332.98,191.3L352.3,194.14L392.23,226.49L411.55,226.07L431.52,209.66L450.84,216.78L470.8,212.5L490.77,207.1L508.8,212.6L528.77,206.44L548.09,201.19L568.06,199.13L587.38,209.79L607.34,216.42L646.63,242.48L666.6,274.66L685.92,260.11L705.89,246.27L725.85,250.88L743.88,253.76L763.85,260.79L783.17,263.93L803.14,251.46L822.46,238.3L842.43,246.01L862.39,269.73L881.71,269.53L901.68,264.91L921,272.3" style="vector-effect: non-scaling-stroke; fill: none; stroke: rgb(63, 137, 166); stroke-opacity: 1; stroke-width: 2px; opacity: 1;"/></g><g class="points"/><g class="text"/></g><g class="trace scatter trace75ac6b" style="stroke-miterlimit: 2; opacity: 1;"><g class="fills"/><g class="errorbars"/><g class="lines"><path class="js-line" d="M0,132.04L19.97,120.83L38,132L57.97,121.22L77.29,137.94L97.25,155.08L116.57,137.68L136.54,142.95L156.51,150.22L175.83,176.9L195.79,209.29L215.11,158.1L235.08,139.81L255.05,150.14L273.72,138.62L332.98,91.89L352.3,109.82L372.26,116.1L392.23,128.14L411.55,122.19L431.52,98.02L450.84,128.51L470.8,146.6L490.77,105.28L508.8,98.03L528.77,98.13L548.09,95.93L568.06,118.68L587.38,115.21L607.34,119.88L627.31,130.39L666.6,156.47L685.92,129.38L705.89,115.67L725.85,119.05L743.88,118.93L763.85,129.84L783.17,131.62L803.14,153.17L822.46,133.03L842.43,129.2L862.39,158.49L881.71,141.51L901.68,145.7L921,143.35" style="vector-effect: non-scaling-stroke; fill: none; stroke: rgb(32, 73, 89); stroke-opacity: 1; stroke-width: 2px; opacity: 1;"/></g><g class="points"/><g class="text"/></g><g class="trace scatter trace721fa5" style="stroke-miterlimit: 2; opacity: 1;"><g class="fills"/><g class="errorbars"/><g class="lines"><path class="js-line" d="M0,333.48L19.97,333.48L38,348.84L57.97,339.48L77.29,339.78L97.25,350.63L116.57,343.59L136.54,337.73L156.51,350.89L175.83,339.15L195.79,351.39L215.11,329.02L235.08,308.26L255.05,323.45L273.72,308.42L332.98,298.29L352.3,279.03L372.26,287.85L392.23,297.67L411.55,295.49L431.52,288.3L450.84,302.45L470.8,309.03L490.77,288.79L508.8,285.44L528.77,283.08L548.09,278.26L568.06,273.7L587.38,276.06L607.34,284.58L627.31,296.38L646.63,311.39L666.6,348.69L685.92,333.53L705.89,337.48L725.85,340.94L743.88,353.67L763.85,329.67L783.17,328.51L803.14,323.13L822.46,311.67L842.43,307.55L862.39,320.7L881.71,316.13L901.68,326.01L921,326.56" style="vector-effect: non-scaling-stroke; fill: none; stroke: rgb(150, 198, 217); stroke-opacity: 1; stroke-width: 2px; opacity: 1;"/></g><g class="points"/><g class="text"/></g><g class="trace scatter trace6d12b6" style="stroke-miterlimit: 2; opacity: 1;"><g class="fills"/><g class="errorbars"/><g class="lines"><path class="js-line" d="M0,247.8L19.97,261.97L38,276.19L57.97,264.07L77.29,282.46L97.25,284.65L116.57,254.16L136.54,266.95L156.51,314.08L175.83,312.95L195.79,310.03L215.11,277.68L235.08,256.46L255.05,254.48L273.72,211.83L332.98,139.78L352.3,155.72L372.26,179.18L392.23,213.04L411.55,186.94L431.52,147.11L450.84,161.39L470.8,162.95L490.77,158.51L508.8,159.41L528.77,151.99L548.09,148.31L568.06,157.22L587.38,159.34L627.31,231.54L646.63,233.03L666.6,263L685.92,212.83L705.89,185.67L725.85,207.24L743.88,231.09L763.85,246.93L783.17,273.02L803.14,263.51L822.46,248.84L842.43,260.98L862.39,309.3L881.71,289.22L901.68,271.88L921,256.92" style="vector-effect: non-scaling-stroke; fill: none; stroke: rgb(208, 233, 242); stroke-opacity: 1; stroke-width: 2px; opacity: 1;"/></g><g class="points"/><g class="text"/></g><g class="trace scatter trace19f90b" style="stroke-miterlimit: 2; opacity: 1;"><g class="fills"/><g class="errorbars"/><g class="lines"><path class="js-line" d="M0,215.39L19.97,217.21L38,228.16L57.97,221.42L77.29,229.81L97.25,238.27L116.57,224.68L136.54,224.09L156.51,240.05L175.83,243.73L195.79,253.96L215.11,230.28L235.08,212.24L255.05,217.67L273.72,201.8L332.98,162.97L352.3,167.93L372.26,178.1L392.23,189.36L411.55,184.39L431.52,161.8L450.84,175.31L470.8,180.82L490.77,162.88L508.8,162.56L528.77,162.22L548.09,155.61L568.06,164.38L587.38,164.22L607.34,175.73L627.31,185.74L646.63,195.06L666.6,214.49L685.92,196.03L705.89,181.36L725.85,187.1L743.88,196.24L763.85,196.16L783.17,201.56L803.14,201.9L822.46,188.6L842.43,190.03L862.39,211.59L881.71,201.66L901.68,199.89L921,200.61" style="vector-effect: non-scaling-stroke; fill: none; stroke: rgb(66, 50, 58); stroke-opacity: 1; stroke-dasharray: 3px, 3px; stroke-width: 2px; opacity: 1;"/></g><g class="points"/><g class="text"/></g><g class="trace scatter tracea144a1" style="stroke-miterlimit: 2; opacity: 1;"><g class="fills"/><g class="errorbars"/><g class="lines"><path class="js-line" d="M0,118.38L19.97,115.39L38,121.21L57.97,122.43L77.29,124.47L97.25,118.84L116.57,119.08L136.54,119.82L156.51,121.68L175.83,127.78L195.79,132.55L215.11,130.13L235.08,115.9L255.05,116.1L273.72,122.03L332.98,99.29L352.3,94.99L372.26,98.67L392.23,104.61L411.55,115.04L431.52,107.53L450.84,115.44L470.8,112.04L490.77,100.32L508.8,108.23L528.77,106.04L548.09,101.58L568.06,103.61L587.38,99.36L607.34,108.8L627.31,112.54L646.63,112.82L666.6,138.91L685.92,135.89L705.89,119.24L725.85,113.38L743.88,118.96L763.85,116.45L783.17,100.12L803.14,96.08L822.46,89.93L842.43,91.31L862.39,102.35L881.71,102.31L901.68,107.07L921,109.48" style="vector-effect: non-scaling-stroke; fill: none; stroke: rgb(108, 140, 125); stroke-opacity: 1; stroke-width: 2px; opacity: 1;"/></g><g class="points"/><g class="text"/></g><g class="trace scatter traceb95882" style="stroke-miterlimit: 2; opacity: 1;"><g class="fills"/><g class="errorbars"/><g class="lines"><path class="js-line" d="M0,290.11L19.97,296.3L38,300.31L57.97,294.18L77.29,307.83L97.25,321.34L116.57,300.94L136.54,298.98L156.51,320.78L195.79,323.35L215.11,299.2L235.08,279.1L255.05,283.98L273.72,257.99L332.98,194.88L352.3,199.71L372.26,206.46L392.23,217.18L411.55,204.21L431.52,195.56L450.84,199.28L470.8,197.48L490.77,185.89L508.8,188.63L528.77,188.96L548.09,178.35L568.06,193.89L587.38,199.99L607.34,207.09L627.31,210.55L646.63,218.75L666.6,245.02L685.92,221.55L705.89,212.25L725.85,220.33L763.85,234.79L783.17,247.55L803.14,251.98L822.46,238.02L842.43,239.74L862.39,250.68L881.71,241.64L901.68,233.47L921,245.84" style="vector-effect: non-scaling-stroke; fill: none; stroke: rgb(142, 179, 162); stroke-opacity: 1; stroke-width: 2px; opacity: 1;"/></g><g class="points"/><g class="text"/></g><g class="trace scatter trace87e73f" style="stroke-miterlimit: 2; opacity: 1;"><g class="fills"/><g class="errorbars"/><g class="lines"><path class="js-line" d="M0,188.43L19.97,186.99L38,203.03L57.97,198.99L77.29,208.49L97.25,222.43L116.57,206.49L136.54,203.26L156.51,218.46L175.83,223.32L195.79,236.06L215.11,204.44L235.08,190.58L255.05,190.96L273.72,177.18L332.98,165.84L352.3,169.03L372.26,181.02L392.23,187.23L411.55,187.41L431.52,149.49L450.84,164.57L470.8,175.08L490.77,150.57L508.8,150.74L528.77,151.16L548.09,141.07L568.06,158.24L587.38,152.25L607.34,166.98L627.31,178.83L646.63,187.67L666.6,200.53L685.92,185.03L705.89,164.61L725.85,165.72L743.88,175.47L763.85,175.9L783.17,185.62L803.14,190.03L822.46,171.36L842.43,175.37L862.39,197.6L881.71,182.24L901.68,181.65L921,179.17" style="vector-effect: non-scaling-stroke; fill: none; stroke: rgb(197, 217, 186); stroke-opacity: 1; stroke-width: 2px; opacity: 1;"/></g><g class="points"/><g class="text"/></g><g class="trace scatter traceb13821" style="stroke-miterlimit: 2; opacity: 1;"><g class="fills"/><g class="errorbars"/><g class="lines"><path class="js-line" d="M0,132.31L19.97,131.88L38,152.4L57.97,145.91L77.29,153.24L97.25,174.77L116.57,142.94L136.54,148.96L156.51,158.93L175.83,155.76L195.79,166.89L235.08,136.88L255.05,140.65L273.72,127.72L332.98,85.08L352.3,102.42L372.26,111.17L392.23,117.06L411.55,110.13L431.52,83.93L450.84,96.51L470.8,94.33L490.77,85.96L508.8,90.32L528.77,103.01L548.09,81.84L568.06,88.6L587.38,92.43L607.34,98.55L627.31,91.43L646.63,101.16L666.6,125.94L685.92,122.4L705.89,109.23L725.85,114.37L743.88,119.45L763.85,107.76L783.17,112.3L803.14,113.13L822.46,109.1L842.43,109.62L862.39,112.33L881.71,108.2L921,100.43" style="vector-effect: non-scaling-stroke; fill: none; stroke: rgb(84, 110, 117); stroke-opacity: 1; stroke-width: 2px; opacity: 1;"/></g><g class="points"/><g class="text"/></g></g></g><g class="overplot"/><path class="xlines-above crisp" d="M0,0" style="fill: none;"/><path class="ylines-above crisp" d="M0,0" style="fill: none;"/><g class="overlines-above"/><g class="xaxislayer-above"><g class="xtick"><text text-anchor="middle" x="0" y="533" transform="translate(80,0)" style="font-family: 'Open Sans', verdana, arial, sans-serif; font-size: 12px; fill: rgb(42, 63, 95); fill-opacity: 1; white-space: pre; opacity: 1;">Jan 2019</text></g><g class="xtick"><text text-anchor="middle" x="0" y="533" style="font-family: 'Open Sans', verdana, arial, sans-serif; font-size: 12px; fill: rgb(42, 63, 95); fill-opacity: 1; white-space: pre; opacity: 1;" transform="translate(196.57,0)">Jul 2019</text></g><g class="xtick"><text text-anchor="middle" x="0" y="533" style="font-family: 'Open Sans', verdana, arial, sans-serif; font-size: 12px; fill: rgb(42, 63, 95); fill-opacity: 1; white-space: pre; opacity: 1;" transform="translate(315.08000000000004,0)">Jan 2020</text></g><g class="xtick"><text text-anchor="middle" x="0" y="533" style="font-family: 'Open Sans', verdana, arial, sans-serif; font-size: 12px; fill: rgb(42, 63, 95); fill-opacity: 1; white-space: pre; opacity: 1;" transform="translate(432.3,0)">Jul 2020</text></g><g class="xtick"><text text-anchor="middle" x="0" y="533" style="font-family: 'Open Sans', verdana, arial, sans-serif; font-size: 12px; fill: rgb(42, 63, 95); fill-opacity: 1; white-space: pre; opacity: 1;" transform="translate(550.8,0)">Jan 2021</text></g><g class="xtick"><text text-anchor="middle" x="0" y="533" style="font-family: 'Open Sans', verdana, arial, sans-serif; font-size: 12px; fill: rgb(42, 63, 95); fill-opacity: 1; white-space: pre; opacity: 1;" transform="translate(667.38,0)">Jul 2021</text></g><g class="xtick"><text text-anchor="middle" x="0" y="533" style="font-family: 'Open Sans', verdana, arial, sans-serif; font-size: 12px; fill: rgb(42, 63, 95); fill-opacity: 1; white-space: pre; opacity: 1;" transform="translate(785.89,0)">Jan 2022</text></g><g class="xtick"><text text-anchor="middle" x="0" y="533" style="font-family: 'Open Sans', verdana, arial, sans-serif; font-size: 12px; fill: rgb(42, 63, 95); fill-opacity: 1; white-space: pre; opacity: 1;" transform="translate(902.46,0)">Jul 2022</text></g></g><g class="yaxislayer-above"><g class="ytick"><text text-anchor="end" x="79" y="4.199999999999999" transform="translate(0,483.68)" style="font-family: 'Open Sans', verdana, arial, sans-serif; font-size: 12px; fill: rgb(42, 63, 95); fill-opacity: 1; white-space: pre; opacity: 1;">65</text></g><g class="ytick"><text text-anchor="end" x="79" y="4.199999999999999" style="font-family: 'Open Sans', verdana, arial, sans-serif; font-size: 12px; fill: rgb(42, 63, 95); fill-opacity: 1; white-space: pre; opacity: 1;" transform="translate(0,423.16)">70</text></g><g class="ytick"><text text-anchor="end" x="79" y="4.199999999999999" style="font-family: 'Open Sans', verdana, arial, sans-serif; font-size: 12px; fill: rgb(42, 63, 95); fill-opacity: 1; white-space: pre; opacity: 1;" transform="translate(0,362.63)">75</text></g><g class="ytick"><text text-anchor="end" x="79" y="4.199999999999999" style="font-family: 'Open Sans', verdana, arial, sans-serif; font-size: 12px; fill: rgb(42, 63, 95); fill-opacity: 1; white-space: pre; opacity: 1;" transform="translate(0,302.11)">80</text></g><g class="ytick"><text text-anchor="end" x="79" y="4.199999999999999" style="font-family: 'Open Sans', verdana, arial, sans-serif; font-size: 12px; fill: rgb(42, 63, 95); fill-opacity: 1; white-space: pre; opacity: 1;" transform="translate(0,241.58)">85</text></g><g class="ytick"><text text-anchor="end" x="79" y="4.199999999999999" style="font-family: 'Open Sans', verdana, arial, sans-serif; font-size: 12px; fill: rgb(42, 63, 95); fill-opacity: 1; white-space: pre; opacity: 1;" transform="translate(0,181.05)">90</text></g><g class="ytick"><text text-anchor="end" x="79" y="4.199999999999999" style="font-family: 'Open Sans', verdana, arial, sans-serif; font-size: 12px; fill: rgb(42, 63, 95); fill-opacity: 1; white-space: pre; opacity: 1;" transform="translate(0,120.53)">95</text></g><g class="ytick"><text text-anchor="end" x="79" y="4.199999999999999" style="font-family: 'Open Sans', verdana, arial, sans-serif; font-size: 12px; fill: rgb(42, 63, 95); fill-opacity: 1; white-space: pre; opacity: 1;" transform="translate(0,60)">100</text></g></g><g class="overaxes-above"/></g></g><g class="polarlayer"/><g class="smithlayer"/><g class="ternarylayer"/><g class="geolayer"/><g class="funnelarealayer"/><g class="pielayer"/><g class="iciclelayer"/><g class="treemaplayer"/><g class="sunburstlayer"/><g class="glimages"/><defs id="topdefs-1b2c6a"><g class="clips"/><clipPath id="legend1b2c6a"><rect width="169" height="200" x="0" y="0"/></clipPath></defs><g class="layer-above"><g class="imagelayer"/><g class="shapelayer"><path data-index="0" fill-rule="evenodd" d="M369.18,520H823.88V60H369.18Z" clip-path="url(#clip1b2c6ax)" style="opacity: 0.1; stroke: rgb(0, 0, 0); stroke-opacity: 0; fill: rgb(11, 31, 38); fill-opacity: 1; stroke-width: 0px;"/><path data-index="1" fill-rule="evenodd" d="M373.69,520H411.69V60H373.69Z" clip-path="url(#clip1b2c6ax)" style="opacity: 0.2; stroke: rgb(0, 0, 0); stroke-opacity: 0; fill: rgb(11, 31, 38); fill-opacity: 1; stroke-width: 0px;"/></g></g><g class="infolayer"><g class="legend" pointer-events="all" transform="translate(1019.4200000000001,60)"><rect class="bg" shape-rendering="crispEdges" style="stroke: rgb(68, 68, 68); stroke-opacity: 1; fill: rgb(255, 255, 255); fill-opacity: 1; stroke-width: 0px;" width="169" height="200" x="0" y="0"/><g class="scrollbox" transform="" clip-path="url(#legend1b2c6a)"><g class="groups" transform=""><g class="traces" transform="translate(0,14.5)" style="opacity: 1;"><text class="legendtext" text-anchor="start" x="40" y="4.680000000000001" style="font-family: 'Open Sans', verdana, arial, sans-serif; font-size: 12px; fill: rgb(42, 63, 95); fill-opacity: 1; white-space: pre;">wime_fahrplan</text><g class="layers" style="opacity: 1;"><g class="legendfill"/><g class="legendlines"><path class="js-line" d="M5,0h30" style="fill: none; stroke: rgb(11, 31, 38); stroke-opacity: 1; stroke-width: 2px;"/></g><g class="legendsymbols"><g class="legendpoints"/></g></g><rect class="legendtoggle" x="0" y="-9.5" width="163.875" height="19" style="fill: rgb(0, 0, 0); fill-opacity: 0;"/></g></g><g class="groups" transform=""><g class="traces" transform="translate(0,33.5)" style="opacity: 1;"><text class="legendtext" text-anchor="start" x="40" y="4.680000000000001" style="font-family: 'Open Sans', verdana, arial, sans-serif; font-size: 12px; fill: rgb(42, 63, 95); fill-opacity: 1; white-space: pre;">wime_sauberkeit</text><g class="layers" style="opacity: 1;"><g class="legendfill"/><g class="legendlines"><path class="js-line" d="M5,0h30" style="fill: none; stroke: rgb(63, 137, 166); stroke-opacity: 1; stroke-width: 2px;"/></g><g class="legendsymbols"><g class="legendpoints"/></g></g><rect class="legendtoggle" x="0" y="-9.5" width="163.875" height="19" style="fill: rgb(0, 0, 0); fill-opacity: 0;"/></g></g><g class="groups" transform=""><g class="traces" transform="translate(0,52.5)" style="opacity: 1;"><text class="legendtext" text-anchor="start" x="40" y="4.680000000000001" style="font-family: 'Open Sans', verdana, arial, sans-serif; font-size: 12px; fill: rgb(42, 63, 95); fill-opacity: 1; white-space: pre;">wime_puenktlich</text><g class="layers" style="opacity: 1;"><g class="legendfill"/><g class="legendlines"><path class="js-line" d="M5,0h30" style="fill: none; stroke: rgb(32, 73, 89); stroke-opacity: 1; stroke-width: 2px;"/></g><g class="legendsymbols"><g class="legendpoints"/></g></g><rect class="legendtoggle" x="0" y="-9.5" width="163.875" height="19" style="fill: rgb(0, 0, 0); fill-opacity: 0;"/></g></g><g class="groups" transform=""><g class="traces" transform="translate(0,71.5)" style="opacity: 1;"><text class="legendtext" text-anchor="start" x="40" y="4.680000000000001" style="font-family: 'Open Sans', verdana, arial, sans-serif; font-size: 12px; fill: rgb(42, 63, 95); fill-opacity: 1; white-space: pre;">wime_preis_leistung</text><g class="layers" style="opacity: 1;"><g class="legendfill"/><g class="legendlines"><path class="js-line" d="M5,0h30" style="fill: none; stroke: rgb(150, 198, 217); stroke-opacity: 1; stroke-width: 2px;"/></g><g class="legendsymbols"><g class="legendpoints"/></g></g><rect class="legendtoggle" x="0" y="-9.5" width="163.875" height="19" style="fill: rgb(0, 0, 0); fill-opacity: 0;"/></g></g><g class="groups" transform=""><g class="traces" transform="translate(0,90.5)" style="opacity: 1;"><text class="legendtext" text-anchor="start" x="40" y="4.680000000000001" style="font-family: 'Open Sans', verdana, arial, sans-serif; font-size: 12px; fill: rgb(42, 63, 95); fill-opacity: 1; white-space: pre;">wime_platzangebot</text><g class="layers" style="opacity: 1;"><g class="legendfill"/><g class="legendlines"><path class="js-line" d="M5,0h30" style="fill: none; stroke: rgb(208, 233, 242); stroke-opacity: 1; stroke-width: 2px;"/></g><g class="legendsymbols"><g class="legendpoints"/></g></g><rect class="legendtoggle" x="0" y="-9.5" width="163.875" height="19" style="fill: rgb(0, 0, 0); fill-opacity: 0;"/></g></g><g class="groups" transform=""><g class="traces" transform="translate(0,109.5)" style="opacity: 1;"><text class="legendtext" text-anchor="start" x="40" y="4.680000000000001" style="font-family: 'Open Sans', verdana, arial, sans-serif; font-size: 12px; fill: rgb(42, 63, 95); fill-opacity: 1; white-space: pre;">Durchschnitt</text><g class="layers" style="opacity: 1;"><g class="legendfill"/><g class="legendlines"><path class="js-line" d="M5,0h30" style="fill: none; stroke: rgb(66, 50, 58); stroke-opacity: 1; stroke-dasharray: 3px, 3px; stroke-width: 2px;"/></g><g class="legendsymbols"><g class="legendpoints"/></g></g><rect class="legendtoggle" x="0" y="-9.5" width="163.875" height="19" style="fill: rgb(0, 0, 0); fill-opacity: 0;"/></g></g><g class="groups" transform=""><g class="traces" transform="translate(0,128.5)" style="opacity: 1;"><text class="legendtext" text-anchor="start" x="40" y="4.680000000000001" style="font-family: 'Open Sans', verdana, arial, sans-serif; font-size: 12px; fill: rgb(42, 63, 95); fill-opacity: 1; white-space: pre;">wime_oes_fahrt</text><g class="layers" style="opacity: 1;"><g class="legendfill"/><g class="legendlines"><path class="js-line" d="M5,0h30" style="fill: none; stroke: rgb(108, 140, 125); stroke-opacity: 1; stroke-width: 2px;"/></g><g class="legendsymbols"><g class="legendpoints"/></g></g><rect class="legendtoggle" x="0" y="-9.5" width="163.875" height="19" style="fill: rgb(0, 0, 0); fill-opacity: 0;"/></g></g><g class="groups" transform=""><g class="traces" transform="translate(0,147.5)" style="opacity: 1;"><text class="legendtext" text-anchor="start" x="40" y="4.680000000000001" style="font-family: 'Open Sans', verdana, arial, sans-serif; font-size: 12px; fill: rgb(42, 63, 95); fill-opacity: 1; white-space: pre;">wime_komfort</text><g class="layers" style="opacity: 1;"><g class="legendfill"/><g class="legendlines"><path class="js-line" d="M5,0h30" style="fill: none; stroke: rgb(142, 179, 162); stroke-opacity: 1; stroke-width: 2px;"/></g><g class="legendsymbols"><g class="legendpoints"/></g></g><rect class="legendtoggle" x="0" y="-9.5" width="163.875" height="19" style="fill: rgb(0, 0, 0); fill-opacity: 0;"/></g></g><g class="groups" transform=""><g class="traces" transform="translate(0,166.5)" style="opacity: 1;"><text class="legendtext" text-anchor="start" x="40" y="4.680000000000001" style="font-family: 'Open Sans', verdana, arial, sans-serif; font-size: 12px; fill: rgb(42, 63, 95); fill-opacity: 1; white-space: pre;">wime_gesamtzuf</text><g class="layers" style="opacity: 1;"><g class="legendfill"/><g class="legendlines"><path class="js-line" d="M5,0h30" style="fill: none; stroke: rgb(197, 217, 186); stroke-opacity: 1; stroke-width: 2px;"/></g><g class="legendsymbols"><g class="legendpoints"/></g></g><rect class="legendtoggle" x="0" y="-9.5" width="163.875" height="19" style="fill: rgb(0, 0, 0); fill-opacity: 0;"/></g></g><g class="groups" transform=""><g class="traces" transform="translate(0,185.5)" style="opacity: 1;"><text class="legendtext" text-anchor="start" x="40" y="4.680000000000001" style="font-family: 'Open Sans', verdana, arial, sans-serif; font-size: 12px; fill: rgb(42, 63, 95); fill-opacity: 1; white-space: pre;">wime_personal</text><g class="layers" style="opacity: 1;"><g class="legendfill"/><g class="legendlines"><path class="js-line" d="M5,0h30" style="fill: none; stroke: rgb(84, 110, 117); stroke-opacity: 1; stroke-width: 2px;"/></g><g class="legendsymbols"><g class="legendpoints"/></g></g><rect class="legendtoggle" x="0" y="-9.5" width="163.875" height="19" style="fill: rgb(0, 0, 0); fill-opacity: 0;"/></g></g></g><rect class="scrollbar" rx="20" ry="3" width="0" height="0" style="fill: rgb(128, 139, 164); fill-opacity: 1;" x="0" y="0"/></g><g class="g-gtitle"><text class="gtitle" x="60" y="30" text-anchor="start" dy="0em" style="font-family: 'Open Sans', verdana, arial, sans-serif; font-size: 17px; fill: rgb(42, 63, 95); opacity: 1; font-weight: normal; white-space: pre;">Zufriedenheit mit verschiedenen Aspekten im zeitlichen Verlauf</text></g><g class="g-xtitle"/><g class="g-ytitle"><text class="ytitle" transform="rotate(-90,31.309375000000003,290)" x="31.309375000000003" y="290" text-anchor="middle" style="font-family: 'Open Sans', verdana, arial, sans-serif; font-size: 14px; fill: rgb(42, 63, 95); opacity: 1; font-weight: normal; white-space: pre;">Zufriedenheit</text></g><g class="annotation" data-index="0" style="opacity: 1;"><g class="annotation-text-g" transform="rotate(0,761.88,68)"><g class="cursor-pointer" transform="translate(700,60)"><rect class="bg" x="0.5" y="0.5" width="123" height="15" style="stroke-width: 1px; stroke: rgb(0, 0, 0); stroke-opacity: 0; fill: rgb(0, 0, 0); fill-opacity: 0;"/><text class="annotation-text" text-anchor="middle" x="61.953125" y="12" style="font-family: 'Open Sans', verdana, arial, sans-serif; font-size: 10px; fill: rgb(11, 31, 38); fill-opacity: 1; white-space: pre;">COVID-19 Massnahmen</text></g></g></g><g class="annotation" data-index="1" style="opacity: 1;"><g class="annotation-text-g" transform="rotate(0,390.69,68)"><g class="cursor-pointer" transform="translate(374,60)"><rect class="bg" x="0.5" y="0.5" width="33" height="15" style="stroke-width: 1px; stroke: rgb(0, 0, 0); stroke-opacity: 0; fill: rgb(0, 0, 0); fill-opacity: 0;"/><text class="annotation-text" text-anchor="middle" x="16.765625" y="12" style="font-family: 'Open Sans', verdana, arial, sans-serif; font-size: 10px; fill: rgb(11, 31, 38); fill-opacity: 1; white-space: pre;">Pause</text></g></g></g></g></svg>