<svg class="main-svg" xmlns="http://www.w3.org/2000/svg" xmlns:xlink="http://www.w3.org/1999/xlink" width="1200" height="600" style="" viewBox="0 0 1200 600"><rect x="0" y="0" width="1200" height="600" style="fill: rgb(255, 255, 255); fill-opacity: 1;"/><defs id="defs-ff0386"><g class="clips"><clipPath id="clipff0386xyplot" class="plotclip"><rect width="859" height="460"/></clipPath><clipPath class="axesclip" id="clipff0386x"><rect x="80" y="0" width="859" height="600"/></clipPath><clipPath class="axesclip" id="clipff0386y"><rect x="0" y="60" width="1200" height="460"/></clipPath><clipPath class="axesclip" id="clipff0386xy"><rect x="80" y="60" width="859" height="460"/></clipPath></g><g class="gradients"/><g class="patterns"/></defs><g class="bglayer"/><g class="layer-below"><g class="imagelayer"/><g class="shapelayer"/></g><g class="cartesianlayer"><g class="subplot xy"><g class="layer-subplot"><g class="shapelayer"/><g class="imagelayer"/></g><g class="minor-gridlayer"><g class="x"/><g class="y"/></g><g class="gridlayer"><g class="x"><path class="xgrid crisp" transform="translate(188.73000000000002,0)" d="M0,60v460" style="stroke: rgb(235, 240, 248); stroke-opacity: 1; stroke-width: 1px;"/><path class="xgrid crisp" transform="translate(299.26,0)" d="M0,60v460" style="stroke: rgb(235, 240, 248); stroke-opacity: 1; stroke-width: 1px;"/><path class="xgrid crisp" transform="translate(408.58,0)" d="M0,60v460" style="stroke: rgb(235, 240, 248); stroke-opacity: 1; stroke-width: 1px;"/><path class="xgrid crisp" transform="translate(519.11,0)" d="M0,60v460" style="stroke: rgb(235, 240, 248); stroke-opacity: 1; stroke-width: 1px;"/><path class="xgrid crisp" transform="translate(627.84,0)" d="M0,60v460" style="stroke: rgb(235, 240, 248); stroke-opacity: 1; stroke-width: 1px;"/><path class="xgrid crisp" transform="translate(738.37,0)" d="M0,60v460" style="stroke: rgb(235, 240, 248); stroke-opacity: 1; stroke-width: 1px;"/><path class="xgrid crisp" transform="translate(847.09,0)" d="M0,60v460" style="stroke: rgb(235, 240, 248); stroke-opacity: 1; stroke-width: 1px;"/></g><g class="y"><path class="ygrid crisp" transform="translate(0,483.68)" d="M80,0h859" style="stroke: rgb(235, 240, 248); stroke-opacity: 1; stroke-width: 1px;"/><path class="ygrid crisp" transform="translate(0,423.16)" d="M80,0h859" style="stroke: rgb(235, 240, 248); stroke-opacity: 1; stroke-width: 1px;"/><path class="ygrid crisp" transform="translate(0,362.63)" d="M80,0h859" style="stroke: rgb(235, 240, 248); stroke-opacity: 1; stroke-width: 1px;"/><path class="ygrid crisp" transform="translate(0,302.11)" d="M80,0h859" style="stroke: rgb(235, 240, 248); stroke-opacity: 1; stroke-width: 1px;"/><path class="ygrid crisp" transform="translate(0,241.58)" d="M80,0h859" style="stroke: rgb(235, 240, 248); stroke-opacity: 1; stroke-width: 1px;"/><path class="ygrid crisp" transform="translate(0,181.05)" d="M80,0h859" style="stroke: rgb(235, 240, 248); stroke-opacity: 1; stroke-width: 1px;"/><path class="ygrid crisp" transform="translate(0,120.53)" d="M80,0h859" style="stroke: rgb(235, 240, 248); stroke-opacity: 1; stroke-width: 1px;"/></g></g><g class="zerolinelayer"/><path class="xlines-below"/><path class="ylines-below"/><g class="overlines-below"/><g class="xaxislayer-below"/><g class="yaxislayer-below"/><g class="overaxes-below"/><g class="plot" transform="translate(80,60)" clip-path="url(#clipff0386xyplot)"><g class="scatterlayer mlayer"><g class="trace scatter traced3530c" style="stroke-miterlimit: 2; opacity: 1;"><g class="fills"/><g class="errorbars"/><g class="lines"><path class="js-line" d="M0,232.25L35.44,236.01L54.06,232.78L72.08,237.01L90.71,244.32L108.73,248.73L127.35,234.12L145.97,238.46L163.99,247.54L182.61,259.31L200.63,239.25L219.26,227.01L237.88,230.2L255.3,221.75L310.56,200.38L347.2,212.12L365.83,212.81L383.85,212.06L402.47,176.62L420.49,192.85L439.11,217.38L457.73,183.51L474.55,169.64L493.17,171.14L511.2,173.9L529.82,186.37L547.84,173.53L566.46,183.14L585.08,190.45L603.1,205.09L621.72,177.22L639.74,163.57L658.37,141.84L676.99,152.01L693.81,167.29L712.43,163.27L730.45,171.38L749.07,174.56L767.09,157.14L785.71,150.47L804.34,183.13L822.36,164.13L840.98,163.89L859,170.45" style="vector-effect: non-scaling-stroke; fill: none; stroke: rgb(11, 31, 38); stroke-opacity: 1; stroke-width: 2px; opacity: 1;"/></g><g class="points"/><g class="text"/></g><g class="trace scatter trace4d0a17" style="stroke-miterlimit: 2; opacity: 1;"><g class="fills"/><g class="errorbars"/><g class="lines"><path class="js-line" d="M0,264.94L18.62,273.94L35.44,283.46L54.06,273.71L72.08,277.03L127.35,264.03L145.97,286.94L163.99,288.05L182.61,296.76L200.63,282.76L219.26,256.13L237.88,269.04L255.3,250.67L310.56,191.3L328.58,194.14L365.83,226.49L383.85,226.07L402.47,209.66L420.49,216.78L439.11,212.5L457.73,207.1L474.55,212.6L493.17,206.44L511.2,201.19L529.82,199.13L547.84,209.79L566.46,216.42L603.1,242.48L621.72,274.66L639.74,260.11L658.37,246.27L676.99,250.88L693.81,253.76L712.43,260.79L730.45,263.93L749.07,251.46L767.09,238.3L785.71,246.01L804.34,269.73L822.36,269.53L840.98,264.91L859,273.98" style="vector-effect: non-scaling-stroke; fill: none; stroke: rgb(63, 137, 166); stroke-opacity: 1; stroke-width: 2px; opacity: 1;"/></g><g class="points"/><g class="text"/></g><g class="trace scatter tracee65816" style="stroke-miterlimit: 2; opacity: 1;"><g class="fills"/><g class="errorbars"/><g class="lines"><path class="js-line" d="M0,131.25L18.62,120.83L35.44,132L54.06,121.22L72.08,137.94L90.71,155.08L108.73,137.68L127.35,142.95L145.97,150.22L163.99,176.9L182.61,209.29L200.63,158.1L219.26,139.81L237.88,150.14L255.3,138.62L310.56,91.89L328.58,109.82L347.2,116.1L365.83,128.14L383.85,122.19L402.47,98.02L420.49,128.51L439.11,146.6L457.73,105.28L474.55,98.03L493.17,98.13L511.2,95.93L529.82,118.68L547.84,115.21L566.46,119.88L585.08,130.39L621.72,156.47L639.74,129.38L658.37,115.67L676.99,119.05L693.81,118.93L712.43,129.84L730.45,131.62L749.07,153.17L767.09,133.03L785.71,129.2L804.34,158.49L822.36,141.51L840.98,145.7L859,143.69" style="vector-effect: non-scaling-stroke; fill: none; stroke: rgb(32, 73, 89); stroke-opacity: 1; stroke-width: 2px; opacity: 1;"/></g><g class="points"/><g class="text"/></g><g class="trace scatter trace3d951c" style="stroke-miterlimit: 2; opacity: 1;"><g class="fills"/><g class="errorbars"/><g class="lines"><path class="js-line" d="M0,334.41L18.62,333.48L35.44,348.84L54.06,339.48L72.08,339.78L90.71,350.63L108.73,343.59L127.35,337.73L145.97,350.89L163.99,339.15L182.61,351.39L200.63,329.02L219.26,308.26L237.88,323.45L255.3,308.42L310.56,298.29L328.58,279.03L347.2,287.85L365.83,297.67L383.85,295.49L402.47,288.3L420.49,302.45L439.11,309.03L457.73,288.79L474.55,285.44L493.17,283.08L511.2,278.26L529.82,273.7L547.84,276.06L566.46,284.58L585.08,296.38L603.1,311.39L621.72,348.69L639.74,333.53L658.37,337.48L676.99,340.94L693.81,353.67L712.43,329.67L730.45,328.51L749.07,323.13L767.09,311.67L785.71,307.55L804.34,320.7L822.36,316.13L840.98,326.01L859,326.2" style="vector-effect: non-scaling-stroke; fill: none; stroke: rgb(150, 198, 217); stroke-opacity: 1; stroke-width: 2px; opacity: 1;"/></g><g class="points"/><g class="text"/></g><g class="trace scatter trace81a180" style="stroke-miterlimit: 2; opacity: 1;"><g class="fills"/><g class="errorbars"/><g class="lines"><path class="js-line" d="M0,248L18.62,261.97L35.44,276.19L54.06,264.07L72.08,282.46L90.71,284.65L108.73,254.16L127.35,266.95L145.97,314.08L163.99,312.95L182.61,310.03L200.63,277.68L219.26,256.46L237.88,254.48L255.3,211.83L310.56,139.78L328.58,155.72L347.2,179.18L365.83,213.04L383.85,186.94L402.47,147.11L420.49,161.39L439.11,162.95L457.73,158.51L474.55,159.41L493.17,151.99L511.2,148.31L529.82,157.22L547.84,159.34L585.08,231.54L603.1,233.03L621.72,263L639.74,212.83L658.37,185.67L676.99,207.24L693.81,231.09L712.43,246.93L730.45,273.02L749.07,263.51L767.09,248.84L785.71,260.98L804.34,309.3L822.36,289.22L840.98,271.88L859,258.15" style="vector-effect: non-scaling-stroke; fill: none; stroke: rgb(208, 233, 242); stroke-opacity: 1; stroke-width: 2px; opacity: 1;"/></g><g class="points"/><g class="text"/></g><g class="trace scatter tracec7870f" style="stroke-miterlimit: 2; opacity: 1;"><g class="fills"/><g class="errorbars"/><g class="lines"><path class="js-line" d="M0,215.66L18.62,217.21L35.44,228.16L54.06,221.42L72.08,229.81L90.71,238.27L108.73,224.68L127.35,224.09L145.97,240.05L163.99,243.73L182.61,253.96L200.63,230.28L219.26,212.24L237.88,217.67L255.3,201.8L310.56,162.97L328.58,167.93L347.2,178.1L365.83,189.36L383.85,184.39L402.47,161.8L420.49,175.31L439.11,180.82L457.73,162.88L474.55,162.56L493.17,162.22L511.2,155.61L529.82,164.38L547.84,164.22L566.46,175.73L585.08,185.74L603.1,195.06L621.72,214.49L639.74,196.03L658.37,181.36L676.99,187.1L693.81,196.24L712.43,196.16L730.45,201.56L749.07,201.9L767.09,188.6L785.71,190.03L804.34,211.59L822.36,201.66L840.98,199.89L859,200.99" style="vector-effect: non-scaling-stroke; fill: none; stroke: rgb(66, 50, 58); stroke-opacity: 1; stroke-dasharray: 3px, 3px; stroke-width: 2px; opacity: 1;"/></g><g class="points"/><g class="text"/></g><g class="trace scatter trace9ccc84" style="stroke-miterlimit: 2; opacity: 1;"><g class="fills"/><g class="errorbars"/><g class="lines"><path class="js-line" d="M0,118.57L18.62,115.39L35.44,121.21L54.06,122.43L72.08,124.47L90.71,118.84L108.73,119.08L127.35,119.82L145.97,121.68L163.99,127.78L182.61,132.55L200.63,130.13L219.26,115.9L237.88,116.1L255.3,122.03L310.56,99.29L328.58,94.99L347.2,98.67L365.83,104.61L383.85,115.04L402.47,107.53L420.49,115.44L439.11,112.04L457.73,100.32L474.55,108.23L493.17,106.04L511.2,101.58L529.82,103.61L547.84,99.36L566.46,108.8L585.08,112.54L603.1,112.82L621.72,138.91L639.74,135.89L658.37,119.24L676.99,113.38L693.81,118.96L712.43,116.45L730.45,100.12L749.07,96.08L767.09,89.93L785.71,91.31L804.34,102.35L822.36,102.31L840.98,107.07L859,110.08" style="vector-effect: non-scaling-stroke; fill: none; stroke: rgb(108, 140, 125); stroke-opacity: 1; stroke-width: 2px; opacity: 1;"/></g><g class="points"/><g class="text"/></g><g class="trace scatter traceb832d5" style="stroke-miterlimit: 2; opacity: 1;"><g class="fills"/><g class="errorbars"/><g class="lines"><path class="js-line" d="M0,289.77L18.62,296.3L35.44,300.31L54.06,294.18L72.08,307.83L90.71,321.34L108.73,300.94L127.35,298.98L145.97,320.78L182.61,323.35L200.63,299.2L219.26,279.1L237.88,283.98L255.3,257.99L310.56,194.88L328.58,199.71L347.2,206.46L365.83,217.18L383.85,204.21L402.47,195.56L420.49,199.28L439.11,197.48L457.73,185.89L474.55,188.63L493.17,188.96L511.2,178.35L529.82,193.89L547.84,199.99L566.46,207.09L585.08,210.55L603.1,218.75L621.72,245.02L639.74,221.55L658.37,212.25L676.99,220.33L712.43,234.79L730.45,247.55L749.07,251.98L767.09,238.02L785.71,239.74L804.34,250.68L822.36,241.64L840.98,233.47L859,246.22" style="vector-effect: non-scaling-stroke; fill: none; stroke: rgb(142, 179, 162); stroke-opacity: 1; stroke-width: 2px; opacity: 1;"/></g><g class="points"/><g class="text"/></g><g class="trace scatter traceb6998e" style="stroke-miterlimit: 2; opacity: 1;"><g class="fills"/><g class="errorbars"/><g class="lines"><path class="js-line" d="M0,188.74L18.62,186.99L35.44,203.03L54.06,198.99L72.08,208.49L90.71,222.43L108.73,206.49L127.35,203.26L145.97,218.46L163.99,223.32L182.61,236.06L200.63,204.44L219.26,190.58L237.88,190.96L255.3,177.18L310.56,165.84L328.58,169.03L347.2,181.02L365.83,187.23L383.85,187.41L402.47,149.49L420.49,164.57L439.11,175.08L457.73,150.57L474.55,150.74L493.17,151.16L511.2,141.07L529.82,158.24L547.84,152.25L566.46,166.98L585.08,178.83L603.1,187.67L621.72,200.53L639.74,185.03L658.37,164.61L676.99,165.72L693.81,175.47L712.43,175.9L730.45,185.62L749.07,190.03L767.09,171.36L785.71,175.37L804.34,197.6L822.36,182.24L840.98,181.65L859,179.46" style="vector-effect: non-scaling-stroke; fill: none; stroke: rgb(197, 217, 186); stroke-opacity: 1; stroke-width: 2px; opacity: 1;"/></g><g class="points"/><g class="text"/></g><g class="trace scatter trace713d8a" style="stroke-miterlimit: 2; opacity: 1;"><g class="fills"/><g class="errorbars"/><g class="lines"><path class="js-line" d="M0,133L18.62,131.88L35.44,152.4L54.06,145.91L72.08,153.24L90.71,174.77L108.73,142.94L127.35,148.96L145.97,158.93L163.99,155.76L182.61,166.89L219.26,136.88L237.88,140.65L255.3,127.72L310.56,85.08L328.58,102.42L347.2,111.17L365.83,117.06L383.85,110.13L402.47,83.93L420.49,96.51L439.11,94.33L457.73,85.96L474.55,90.32L493.17,103.01L511.2,81.84L529.82,88.6L547.84,92.43L566.46,98.55L585.08,91.43L603.1,101.16L621.72,125.94L639.74,122.4L658.37,109.23L676.99,114.37L693.81,119.45L712.43,107.76L730.45,112.3L749.07,113.13L767.09,109.1L785.71,109.62L804.34,112.33L822.36,108.2L859,100.68" style="vector-effect: non-scaling-stroke; fill: none; stroke: rgb(84, 110, 117); stroke-opacity: 1; stroke-width: 2px; opacity: 1;"/></g><g class="points"/><g class="text"/></g></g></g><g class="overplot"/><path class="xlines-above crisp" d="M0,0" style="fill: none;"/><path class="ylines-above crisp" d="M0,0" style="fill: none;"/><g class="overlines-above"/><g class="xaxislayer-above"><g class="xtick"><text text-anchor="middle" x="0" y="533" transform="translate(80,0)" style="font-family: 'Open Sans', verdana, arial, sans-serif; font-size: 12px; fill: rgb(42, 63, 95); fill-opacity: 1; white-space: pre; opacity: 1;">Jan 2019</text></g><g class="xtick"><text text-anchor="middle" x="0" y="533" style="font-family: 'Open Sans', verdana, arial, sans-serif; font-size: 12px; fill: rgb(42, 63, 95); fill-opacity: 1; white-space: pre; opacity: 1;" transform="translate(188.73000000000002,0)">Jul 2019</text></g><g class="xtick"><text text-anchor="middle" x="0" y="533" style="font-family: 'Open Sans', verdana, arial, sans-serif; font-size: 12px; fill: rgb(42, 63, 95); fill-opacity: 1; white-space: pre; opacity: 1;" transform="translate(299.26,0)">Jan 2020</text></g><g class="xtick"><text text-anchor="middle" x="0" y="533" style="font-family: 'Open Sans', verdana, arial, sans-serif; font-size: 12px; fill: rgb(42, 63, 95); fill-opacity: 1; white-space: pre; opacity: 1;" transform="translate(408.58,0)">Jul 2020</text></g><g class="xtick"><text text-anchor="middle" x="0" y="533" style="font-family: 'Open Sans', verdana, arial, sans-serif; font-size: 12px; fill: rgb(42, 63, 95); fill-opacity: 1; white-space: pre; opacity: 1;" transform="translate(519.11,0)">Jan 2021</text></g><g class="xtick"><text text-anchor="middle" x="0" y="533" style="font-family: 'Open Sans', verdana, arial, sans-serif; font-size: 12px; fill: rgb(42, 63, 95); fill-opacity: 1; white-space: pre; opacity: 1;" transform="translate(627.84,0)">Jul 2021</text></g><g class="xtick"><text text-anchor="middle" x="0" y="533" style="font-family: 'Open Sans', verdana, arial, sans-serif; font-size: 12px; fill: rgb(42, 63, 95); fill-opacity: 1; white-space: pre; opacity: 1;" transform="translate(738.37,0)">Jan 2022</text></g><g class="xtick"><text text-anchor="middle" x="0" y="533" style="font-family: 'Open Sans', verdana, arial, sans-serif; font-size: 12px; fill: rgb(42, 63, 95); fill-opacity: 1; white-space: pre; opacity: 1;" transform="translate(847.09,0)">Jul 2022</text></g></g><g class="yaxislayer-above"><g class="ytick"><text text-anchor="end" x="79" y="4.199999999999999" transform="translate(0,483.68)" style="font-family: 'Open Sans', verdana, arial, sans-serif; font-size: 12px; fill: rgb(42, 63, 95); fill-opacity: 1; white-space: pre; opacity: 1;">65</text></g><g class="ytick"><text text-anchor="end" x="79" y="4.199999999999999" style="font-family: 'Open Sans', verdana, arial, sans-serif; font-size: 12px; fill: rgb(42, 63, 95); fill-opacity: 1; white-space: pre; opacity: 1;" transform="translate(0,423.16)">70</text></g><g class="ytick"><text text-anchor="end" x="79" y="4.199999999999999" style="font-family: 'Open Sans', verdana, arial, sans-serif; font-size: 12px; fill: rgb(42, 63, 95); fill-opacity: 1; white-space: pre; opacity: 1;" transform="translate(0,362.63)">75</text></g><g class="ytick"><text text-anchor="end" x="79" y="4.199999999999999" style="font-family: 'Open Sans', verdana, arial, sans-serif; font-size: 12px; fill: rgb(42, 63, 95); fill-opacity: 1; white-space: pre; opacity: 1;" transform="translate(0,302.11)">80</text></g><g class="ytick"><text text-anchor="end" x="79" y="4.199999999999999" style="font-family: 'Open Sans', verdana, arial, sans-serif; font-size: 12px; fill: rgb(42, 63, 95); fill-opacity: 1; white-space: pre; opacity: 1;" transform="translate(0,241.58)">85</text></g><g class="ytick"><text text-anchor="end" x="79" y="4.199999999999999" style="font-family: 'Open Sans', verdana, arial, sans-serif; font-size: 12px; fill: rgb(42, 63, 95); fill-opacity: 1; white-space: pre; opacity: 1;" transform="translate(0,181.05)">90</text></g><g class="ytick"><text text-anchor="end" x="79" y="4.199999999999999" style="font-family: 'Open Sans', verdana, arial, sans-serif; font-size: 12px; fill: rgb(42, 63, 95); fill-opacity: 1; white-space: pre; opacity: 1;" transform="translate(0,120.53)">95</text></g><g class="ytick"><text text-anchor="end" x="79" y="4.199999999999999" style="font-family: 'Open Sans', verdana, arial, sans-serif; font-size: 12px; fill: rgb(42, 63, 95); fill-opacity: 1; white-space: pre; opacity: 1;" transform="translate(0,60)">100</text></g></g><g class="overaxes-above"/></g></g><g class="polarlayer"/><g class="smithlayer"/><g class="ternarylayer"/><g class="geolayer"/><g class="funnelarealayer"/><g class="pielayer"/><g class="iciclelayer"/><g class="treemaplayer"/><g class="sunburstlayer"/><g class="glimages"/><defs id="topdefs-ff0386"><g class="clips"/><clipPath id="legendff0386"><rect width="232" height="200" x="0" y="0"/></clipPath></defs><g class="layer-above"><g class="imagelayer"/><g class="shapelayer"><path data-index="0" fill-rule="evenodd" d="M349.71,520H773.81V60H349.71Z" clip-path="url(#clipff0386x)" style="opacity: 0.1; stroke: rgb(0, 0, 0); stroke-opacity: 0; fill: rgb(11, 31, 38); fill-opacity: 1; stroke-width: 0px;"/></g></g><g class="infolayer"><g class="legend" pointer-events="all" transform="translate(956.1800000000001,60)"><rect class="bg" shape-rendering="crispEdges" style="stroke: rgb(68, 68, 68); stroke-opacity: 1; fill: rgb(255, 255, 255); fill-opacity: 1; stroke-width: 0px;" width="232" height="200" x="0" y="0"/><g class="scrollbox" transform="" clip-path="url(#legendff0386)"><g class="groups" transform=""><g class="traces" transform="translate(0,14.5)" style="opacity: 1;"><text class="legendtext" text-anchor="start" x="40" y="4.680000000000001" style="font-family: 'Open Sans', verdana, arial, sans-serif; font-size: 12px; fill: rgb(42, 63, 95); fill-opacity: 1; white-space: pre;">Fahrplanangebot</text><g class="layers" style="opacity: 1;"><g class="legendfill"/><g class="legendlines"><path class="js-line" d="M5,0h30" style="fill: none; stroke: rgb(11, 31, 38); stroke-opacity: 1; stroke-width: 2px;"/></g><g class="legendsymbols"><g class="legendpoints"/></g></g><rect class="legendtoggle" x="0" y="-9.5" width="226.4375" height="19" style="fill: rgb(0, 0, 0); fill-opacity: 0;"/></g></g><g class="groups" transform=""><g class="traces" transform="translate(0,33.5)" style="opacity: 1;"><text class="legendtext" text-anchor="start" x="40" y="4.680000000000001" style="font-family: 'Open Sans', verdana, arial, sans-serif; font-size: 12px; fill: rgb(42, 63, 95); fill-opacity: 1; white-space: pre;">Sauberkeit</text><g class="layers" style="opacity: 1;"><g class="legendfill"/><g class="legendlines"><path class="js-line" d="M5,0h30" style="fill: none; stroke: rgb(63, 137, 166); stroke-opacity: 1; stroke-width: 2px;"/></g><g class="legendsymbols"><g class="legendpoints"/></g></g><rect class="legendtoggle" x="0" y="-9.5" width="226.4375" height="19" style="fill: rgb(0, 0, 0); fill-opacity: 0;"/></g></g><g class="groups" transform=""><g class="traces" transform="translate(0,52.5)" style="opacity: 1;"><text class="legendtext" text-anchor="start" x="40" y="4.680000000000001" style="font-family: 'Open Sans', verdana, arial, sans-serif; font-size: 12px; fill: rgb(42, 63, 95); fill-opacity: 1; white-space: pre;">Pünktlichkeit</text><g class="layers" style="opacity: 1;"><g class="legendfill"/><g class="legendlines"><path class="js-line" d="M5,0h30" style="fill: none; stroke: rgb(32, 73, 89); stroke-opacity: 1; stroke-width: 2px;"/></g><g class="legendsymbols"><g class="legendpoints"/></g></g><rect class="legendtoggle" x="0" y="-9.5" width="226.4375" height="19" style="fill: rgb(0, 0, 0); fill-opacity: 0;"/></g></g><g class="groups" transform=""><g class="traces" transform="translate(0,71.5)" style="opacity: 1;"><text class="legendtext" text-anchor="start" x="40" y="4.680000000000001" style="font-family: 'Open Sans', verdana, arial, sans-serif; font-size: 12px; fill: rgb(42, 63, 95); fill-opacity: 1; white-space: pre;">Preis Leistung</text><g class="layers" style="opacity: 1;"><g class="legendfill"/><g class="legendlines"><path class="js-line" d="M5,0h30" style="fill: none; stroke: rgb(150, 198, 217); stroke-opacity: 1; stroke-width: 2px;"/></g><g class="legendsymbols"><g class="legendpoints"/></g></g><rect class="legendtoggle" x="0" y="-9.5" width="226.4375" height="19" style="fill: rgb(0, 0, 0); fill-opacity: 0;"/></g></g><g class="groups" transform=""><g class="traces" transform="translate(0,90.5)" style="opacity: 1;"><text class="legendtext" text-anchor="start" x="40" y="4.680000000000001" style="font-family: 'Open Sans', verdana, arial, sans-serif; font-size: 12px; fill: rgb(42, 63, 95); fill-opacity: 1; white-space: pre;">Platzangebot</text><g class="layers" style="opacity: 1;"><g class="legendfill"/><g class="legendlines"><path class="js-line" d="M5,0h30" style="fill: none; stroke: rgb(208, 233, 242); stroke-opacity: 1; stroke-width: 2px;"/></g><g class="legendsymbols"><g class="legendpoints"/></g></g><rect class="legendtoggle" x="0" y="-9.5" width="226.4375" height="19" style="fill: rgb(0, 0, 0); fill-opacity: 0;"/></g></g><g class="groups" transform=""><g class="traces" transform="translate(0,109.5)" style="opacity: 1;"><text class="legendtext" text-anchor="start" x="40" y="4.680000000000001" style="font-family: 'Open Sans', verdana, arial, sans-serif; font-size: 12px; fill: rgb(42, 63, 95); fill-opacity: 1; white-space: pre;">Durchschnitt</text><g class="layers" style="opacity: 1;"><g class="legendfill"/><g class="legendlines"><path class="js-line" d="M5,0h30" style="fill: none; stroke: rgb(66, 50, 58); stroke-opacity: 1; stroke-dasharray: 3px, 3px; stroke-width: 2px;"/></g><g class="legendsymbols"><g class="legendpoints"/></g></g><rect class="legendtoggle" x="0" y="-9.5" width="226.4375" height="19" style="fill: rgb(0, 0, 0); fill-opacity: 0;"/></g></g><g class="groups" transform=""><g class="traces" transform="translate(0,128.5)" style="opacity: 1;"><text class="legendtext" text-anchor="start" x="40" y="4.680000000000001" style="font-family: 'Open Sans', verdana, arial, sans-serif; font-size: 12px; fill: rgb(42, 63, 95); fill-opacity: 1; white-space: pre;">Sicherheitsempfinden</text><g class="layers" style="opacity: 1;"><g class="legendfill"/><g class="legendlines"><path class="js-line" d="M5,0h30" style="fill: none; stroke: rgb(108, 140, 125); stroke-opacity: 1; stroke-width: 2px;"/></g><g class="legendsymbols"><g class="legendpoints"/></g></g><rect class="legendtoggle" x="0" y="-9.5" width="226.4375" height="19" style="fill: rgb(0, 0, 0); fill-opacity: 0;"/></g></g><g class="groups" transform=""><g class="traces" transform="translate(0,147.5)" style="opacity: 1;"><text class="legendtext" text-anchor="start" x="40" y="4.680000000000001" style="font-family: 'Open Sans', verdana, arial, sans-serif; font-size: 12px; fill: rgb(42, 63, 95); fill-opacity: 1; white-space: pre;">Ausstattung des Zuges</text><g class="layers" style="opacity: 1;"><g class="legendfill"/><g class="legendlines"><path class="js-line" d="M5,0h30" style="fill: none; stroke: rgb(142, 179, 162); stroke-opacity: 1; stroke-width: 2px;"/></g><g class="legendsymbols"><g class="legendpoints"/></g></g><rect class="legendtoggle" x="0" y="-9.5" width="226.4375" height="19" style="fill: rgb(0, 0, 0); fill-opacity: 0;"/></g></g><g class="groups" transform=""><g class="traces" transform="translate(0,166.5)" style="opacity: 1;"><text class="legendtext" text-anchor="start" x="40" y="4.680000000000001" style="font-family: 'Open Sans', verdana, arial, sans-serif; font-size: 12px; fill: rgb(42, 63, 95); fill-opacity: 1; white-space: pre;">Spontane Gesamtzufriedenheit</text><g class="layers" style="opacity: 1;"><g class="legendfill"/><g class="legendlines"><path class="js-line" d="M5,0h30" style="fill: none; stroke: rgb(197, 217, 186); stroke-opacity: 1; stroke-width: 2px;"/></g><g class="legendsymbols"><g class="legendpoints"/></g></g><rect class="legendtoggle" x="0" y="-9.5" width="226.4375" height="19" style="fill: rgb(0, 0, 0); fill-opacity: 0;"/></g></g><g class="groups" transform=""><g class="traces" transform="translate(0,185.5)" style="opacity: 1;"><text class="legendtext" text-anchor="start" x="40" y="4.680000000000001" style="font-family: 'Open Sans', verdana, arial, sans-serif; font-size: 12px; fill: rgb(42, 63, 95); fill-opacity: 1; white-space: pre;">Kundenbegleiter</text><g class="layers" style="opacity: 1;"><g class="legendfill"/><g class="legendlines"><path class="js-line" d="M5,0h30" style="fill: none; stroke: rgb(84, 110, 117); stroke-opacity: 1; stroke-width: 2px;"/></g><g class="legendsymbols"><g class="legendpoints"/></g></g><rect class="legendtoggle" x="0" y="-9.5" width="226.4375" height="19" style="fill: rgb(0, 0, 0); fill-opacity: 0;"/></g></g></g><rect class="scrollbar" rx="20" ry="3" width="0" height="0" style="fill: rgb(128, 139, 164); fill-opacity: 1;" x="0" y="0"/></g><g class="g-gtitle"><text class="gtitle" x="60" y="30" text-anchor="start" dy="0em" style="font-family: 'Open Sans', verdana, arial, sans-serif; font-size: 17px; fill: rgb(42, 63, 95); opacity: 1; font-weight: normal; white-space: pre;">Zufriedenheit mit verschiedenen Aspekten im zeitlichen Verlauf</text></g><g class="g-xtitle"/><g class="g-ytitle"><text class="ytitle" transform="rotate(-90,31.309375000000003,290)" x="31.309375000000003" y="290" text-anchor="middle" style="font-family: 'Open Sans', verdana, arial, sans-serif; font-size: 14px; fill: rgb(42, 63, 95); opacity: 1; font-weight: normal; white-space: pre;">Zufriedenheit</text></g><g class="annotation" data-index="0" style="opacity: 1;"><g class="annotation-text-g" transform="rotate(0,711.81,68)"><g class="cursor-pointer" transform="translate(650,60)"><rect class="bg" x="0.5" y="0.5" width="123" height="15" style="stroke-width: 1px; stroke: rgb(0, 0, 0); stroke-opacity: 0; fill: rgb(0, 0, 0); fill-opacity: 0;"/><text class="annotation-text" text-anchor="middle" x="61.953125" y="12" style="font-family: 'Open Sans', verdana, arial, sans-serif; font-size: 10px; fill: rgb(11, 31, 38); fill-opacity: 1; white-space: pre;">COVID-19 Massnahmen</text></g></g></g></g></svg>