<svg class="main-svg" xmlns="http://www.w3.org/2000/svg" xmlns:xlink="http://www.w3.org/1999/xlink" width="1200" height="600" style="" viewBox="0 0 1200 600"><rect x="0" y="0" width="1200" height="600" style="fill: rgb(255, 255, 255); fill-opacity: 1;"/><defs id="defs-358ab7"><g class="clips"><clipPath id="clip358ab7xyplot" class="plotclip"><rect width="921" height="460"/></clipPath><clipPath class="axesclip" id="clip358ab7x"><rect x="80" y="0" width="921" height="600"/></clipPath><clipPath class="axesclip" id="clip358ab7y"><rect x="0" y="60" width="1200" height="460"/></clipPath><clipPath class="axesclip" id="clip358ab7xy"><rect x="80" y="60" width="921" height="460"/></clipPath></g><g class="gradients"/><g class="patterns"/></defs><g class="bglayer"/><g class="layer-below"><g class="imagelayer"/><g class="shapelayer"/></g><g class="cartesianlayer"><g class="subplot xy"><g class="layer-subplot"><g class="shapelayer"/><g class="imagelayer"/></g><g class="minor-gridlayer"><g class="x"/><g class="y"/></g><g class="gridlayer"><g class="x"><path class="xgrid crisp" transform="translate(201.76999999999998,0)" d="M0,60v460" style="stroke: rgb(235, 240, 248); stroke-opacity: 1; stroke-width: 1px;"/><path class="xgrid crisp" transform="translate(325.56,0)" d="M0,60v460" style="stroke: rgb(235, 240, 248); stroke-opacity: 1; stroke-width: 1px;"/><path class="xgrid crisp" transform="translate(448,0)" d="M0,60v460" style="stroke: rgb(235, 240, 248); stroke-opacity: 1; stroke-width: 1px;"/><path class="xgrid crisp" transform="translate(571.78,0)" d="M0,60v460" style="stroke: rgb(235, 240, 248); stroke-opacity: 1; stroke-width: 1px;"/><path class="xgrid crisp" transform="translate(693.55,0)" d="M0,60v460" style="stroke: rgb(235, 240, 248); stroke-opacity: 1; stroke-width: 1px;"/><path class="xgrid crisp" transform="translate(817.34,0)" d="M0,60v460" style="stroke: rgb(235, 240, 248); stroke-opacity: 1; stroke-width: 1px;"/><path class="xgrid crisp" transform="translate(939.11,0)" d="M0,60v460" style="stroke: rgb(235, 240, 248); stroke-opacity: 1; stroke-width: 1px;"/></g><g class="y"><path class="ygrid crisp" transform="translate(0,483.68)" d="M80,0h921" style="stroke: rgb(235, 240, 248); stroke-opacity: 1; stroke-width: 1px;"/><path class="ygrid crisp" transform="translate(0,423.16)" d="M80,0h921" style="stroke: rgb(235, 240, 248); stroke-opacity: 1; stroke-width: 1px;"/><path class="ygrid crisp" transform="translate(0,362.63)" d="M80,0h921" style="stroke: rgb(235, 240, 248); stroke-opacity: 1; stroke-width: 1px;"/><path class="ygrid crisp" transform="translate(0,302.11)" d="M80,0h921" style="stroke: rgb(235, 240, 248); stroke-opacity: 1; stroke-width: 1px;"/><path class="ygrid crisp" transform="translate(0,241.58)" d="M80,0h921" style="stroke: rgb(235, 240, 248); stroke-opacity: 1; stroke-width: 1px;"/><path class="ygrid crisp" transform="translate(0,181.05)" d="M80,0h921" style="stroke: rgb(235, 240, 248); stroke-opacity: 1; stroke-width: 1px;"/><path class="ygrid crisp" transform="translate(0,120.53)" d="M80,0h921" style="stroke: rgb(235, 240, 248); stroke-opacity: 1; stroke-width: 1px;"/></g></g><g class="zerolinelayer"/><path class="xlines-below"/><path class="ylines-below"/><g class="overlines-below"/><g class="xaxislayer-below"/><g class="yaxislayer-below"/><g class="overaxes-below"/><g class="plot" transform="translate(80,60)" clip-path="url(#clip358ab7xyplot)"><g class="scatterlayer mlayer"><g class="trace scatter trace764a9e" style="stroke-miterlimit: 2; opacity: 1;"><g class="fills"/><g class="errorbars"/><g class="lines"><path class="js-line" d="M0,231.41L39.69,236.01L60.55,232.78L80.73,237.01L101.59,244.32L121.77,248.73L142.62,234.12L163.48,238.46L183.66,247.54L204.52,259.31L224.7,239.25L245.56,227.01L266.41,230.2L285.92,221.75L347.81,200.38L388.85,212.12L409.71,212.81L429.89,212.06L450.75,176.62L470.93,192.85L491.78,217.38L512.64,183.51L531.48,169.64L552.33,171.14L572.51,173.9L593.37,186.37L613.55,173.53L634.41,183.14L655.26,190.45L675.44,205.09L696.3,177.22L716.48,163.57L737.34,141.84L758.19,152.01L777.03,167.29L797.89,163.27L818.07,171.38L838.92,174.56L859.11,157.14L879.96,150.47L900.82,183.13L921,164.35" style="vector-effect: non-scaling-stroke; fill: none; stroke: rgb(11, 31, 38); stroke-opacity: 1; stroke-width: 2px; opacity: 1;"/></g><g class="points"/><g class="text"/></g><g class="trace scatter tracef20f59" style="stroke-miterlimit: 2; opacity: 1;"><g class="fills"/><g class="errorbars"/><g class="lines"><path class="js-line" d="M0,264.53L20.86,273.94L39.69,283.46L60.55,273.71L80.73,277.03L142.62,264.03L163.48,286.94L183.66,288.05L204.52,296.76L224.7,282.76L245.56,256.13L266.41,269.04L285.92,250.67L347.81,191.3L368,194.14L409.71,226.49L429.89,226.07L450.75,209.66L470.93,216.78L491.78,212.5L512.64,207.1L531.48,212.6L552.33,206.44L572.51,201.19L593.37,199.13L613.55,209.79L634.41,216.42L675.44,242.48L696.3,274.66L716.48,260.11L737.34,246.27L758.19,250.88L777.03,253.76L797.89,260.79L818.07,263.93L838.92,251.46L859.11,238.3L879.96,246.01L900.82,269.73L921,269.46" style="vector-effect: non-scaling-stroke; fill: none; stroke: rgb(63, 137, 166); stroke-opacity: 1; stroke-width: 2px; opacity: 1;"/></g><g class="points"/><g class="text"/></g><g class="trace scatter tracea08081" style="stroke-miterlimit: 2; opacity: 1;"><g class="fills"/><g class="errorbars"/><g class="lines"><path class="js-line" d="M0,132.04L20.86,120.83L39.69,132L60.55,121.22L80.73,137.94L101.59,155.08L121.77,137.68L142.62,142.95L163.48,150.22L183.66,176.9L204.52,209.29L224.7,158.1L245.56,139.81L266.41,150.14L285.92,138.62L347.81,91.89L368,109.82L388.85,116.1L409.71,128.14L429.89,122.19L450.75,98.02L470.93,128.51L491.78,146.6L512.64,105.28L531.48,98.03L552.33,98.13L572.51,95.93L593.37,118.68L613.55,115.21L634.41,119.88L655.26,130.39L696.3,156.47L716.48,129.38L737.34,115.67L758.19,119.05L777.03,118.93L797.89,129.84L818.07,131.62L838.92,153.17L859.11,133.03L879.96,129.2L900.82,158.49L921,142.24" style="vector-effect: non-scaling-stroke; fill: none; stroke: rgb(32, 73, 89); stroke-opacity: 1; stroke-width: 2px; opacity: 1;"/></g><g class="points"/><g class="text"/></g><g class="trace scatter trace5492a3" style="stroke-miterlimit: 2; opacity: 1;"><g class="fills"/><g class="errorbars"/><g class="lines"><path class="js-line" d="M0,333.48L20.86,333.48L39.69,348.84L60.55,339.48L80.73,339.78L101.59,350.63L121.77,343.59L142.62,337.73L163.48,350.89L183.66,339.15L204.52,351.39L224.7,329.02L245.56,308.26L266.41,323.45L285.92,308.42L347.81,298.29L368,279.03L388.85,287.85L409.71,297.67L429.89,295.49L450.75,288.3L470.93,302.45L491.78,309.03L512.64,288.79L531.48,285.44L552.33,283.08L572.51,278.26L593.37,273.7L613.55,276.06L634.41,284.58L655.26,296.38L675.44,311.39L696.3,348.69L716.48,333.53L737.34,337.48L758.19,340.94L777.03,353.67L797.89,329.67L818.07,328.51L838.92,323.13L859.11,311.67L879.96,307.55L900.82,320.7L921,316.23" style="vector-effect: non-scaling-stroke; fill: none; stroke: rgb(150, 198, 217); stroke-opacity: 1; stroke-width: 2px; opacity: 1;"/></g><g class="points"/><g class="text"/></g><g class="trace scatter tracea549e8" style="stroke-miterlimit: 2; opacity: 1;"><g class="fills"/><g class="errorbars"/><g class="lines"><path class="js-line" d="M0,247.8L20.86,261.97L39.69,276.19L60.55,264.07L80.73,282.46L101.59,284.65L121.77,254.16L142.62,266.95L163.48,314.08L183.66,312.95L204.52,310.03L224.7,277.68L245.56,256.46L266.41,254.48L285.92,211.83L347.81,139.78L368,155.72L388.85,179.18L409.71,213.04L429.89,186.94L450.75,147.11L470.93,161.39L491.78,162.95L512.64,158.51L531.48,159.41L552.33,151.99L572.51,148.31L593.37,157.22L613.55,159.34L655.26,231.54L675.44,233.03L696.3,263L716.48,212.83L737.34,185.67L758.19,207.24L777.03,231.09L797.89,246.93L818.07,273.02L838.92,263.51L859.11,248.84L879.96,260.98L900.82,309.3L921,289.97" style="vector-effect: non-scaling-stroke; fill: none; stroke: rgb(208, 233, 242); stroke-opacity: 1; stroke-width: 2px; opacity: 1;"/></g><g class="points"/><g class="text"/></g><g class="trace scatter traceefbd92" style="stroke-miterlimit: 2; opacity: 1;"><g class="fills"/><g class="errorbars"/><g class="lines"><path class="js-line" d="M0,215.39L20.86,217.21L39.69,228.16L60.55,221.42L80.73,229.81L101.59,238.27L121.77,224.68L142.62,224.09L163.48,240.05L183.66,243.73L204.52,253.96L224.7,230.28L245.56,212.24L266.41,217.67L285.92,201.8L347.81,162.97L368,167.93L388.85,178.1L409.71,189.36L429.89,184.39L450.75,161.8L470.93,175.31L491.78,180.82L512.64,162.88L531.48,162.56L552.33,162.22L572.51,155.61L593.37,164.38L613.55,164.22L634.41,175.73L655.26,185.74L675.44,195.06L696.3,214.49L716.48,196.03L737.34,181.36L758.19,187.1L777.03,196.24L797.89,196.16L818.07,201.56L838.92,201.9L859.11,188.6L879.96,190.03L900.82,211.59L921,201.71" style="vector-effect: non-scaling-stroke; fill: none; stroke: rgb(66, 50, 58); stroke-opacity: 1; stroke-dasharray: 3px, 3px; stroke-width: 2px; opacity: 1;"/></g><g class="points"/><g class="text"/></g><g class="trace scatter trace666a83" style="stroke-miterlimit: 2; opacity: 1;"><g class="fills"/><g class="errorbars"/><g class="lines"><path class="js-line" d="M0,118.38L20.86,115.39L39.69,121.21L60.55,122.43L80.73,124.47L101.59,118.84L121.77,119.08L142.62,119.82L163.48,121.68L183.66,127.78L204.52,132.55L224.7,130.13L245.56,115.9L266.41,116.1L285.92,122.03L347.81,99.29L368,94.99L388.85,98.67L409.71,104.61L429.89,115.04L450.75,107.53L470.93,115.44L491.78,112.04L512.64,100.32L531.48,108.23L552.33,106.04L572.51,101.58L593.37,103.61L613.55,99.36L634.41,108.8L655.26,112.54L675.44,112.82L696.3,138.91L716.48,135.89L737.34,119.24L758.19,113.38L777.03,118.96L797.89,116.45L818.07,100.12L838.92,96.08L859.11,89.93L879.96,91.31L900.82,102.35L921,101.89" style="vector-effect: non-scaling-stroke; fill: none; stroke: rgb(108, 140, 125); stroke-opacity: 1; stroke-width: 2px; opacity: 1;"/></g><g class="points"/><g class="text"/></g><g class="trace scatter trace4779b6" style="stroke-miterlimit: 2; opacity: 1;"><g class="fills"/><g class="errorbars"/><g class="lines"><path class="js-line" d="M0,290.11L20.86,296.3L39.69,300.31L60.55,294.18L80.73,307.83L101.59,321.34L121.77,300.94L142.62,298.98L163.48,320.78L204.52,323.35L224.7,299.2L245.56,279.1L266.41,283.98L285.92,257.99L347.81,194.88L368,199.71L388.85,206.46L409.71,217.18L429.89,204.21L450.75,195.56L470.93,199.28L491.78,197.48L512.64,185.89L531.48,188.63L552.33,188.96L572.51,178.35L593.37,193.89L613.55,199.99L634.41,207.09L655.26,210.55L675.44,218.75L696.3,245.02L716.48,221.55L737.34,212.25L758.19,220.33L797.89,234.79L818.07,247.55L838.92,251.98L859.11,238.02L879.96,239.74L900.82,250.68L921,241.35" style="vector-effect: non-scaling-stroke; fill: none; stroke: rgb(142, 179, 162); stroke-opacity: 1; stroke-width: 2px; opacity: 1;"/></g><g class="points"/><g class="text"/></g><g class="trace scatter trace11c858" style="stroke-miterlimit: 2; opacity: 1;"><g class="fills"/><g class="errorbars"/><g class="lines"><path class="js-line" d="M0,188.43L20.86,186.99L39.69,203.03L60.55,198.99L80.73,208.49L101.59,222.43L121.77,206.49L142.62,203.26L163.48,218.46L183.66,223.32L204.52,236.06L224.7,204.44L245.56,190.58L266.41,190.96L285.92,177.18L347.81,165.84L368,169.03L388.85,181.02L409.71,187.23L429.89,187.41L450.75,149.49L470.93,164.57L491.78,175.08L512.64,150.57L531.48,150.74L552.33,151.16L572.51,141.07L593.37,158.24L613.55,152.25L634.41,166.98L655.26,178.83L675.44,187.67L696.3,200.53L716.48,185.03L737.34,164.61L758.19,165.72L777.03,175.47L797.89,175.9L818.07,185.62L838.92,190.03L859.11,171.36L879.96,175.37L900.82,197.6L921,181.87" style="vector-effect: non-scaling-stroke; fill: none; stroke: rgb(197, 217, 186); stroke-opacity: 1; stroke-width: 2px; opacity: 1;"/></g><g class="points"/><g class="text"/></g><g class="trace scatter trace613801" style="stroke-miterlimit: 2; opacity: 1;"><g class="fills"/><g class="errorbars"/><g class="lines"><path class="js-line" d="M0,132.31L20.86,131.88L39.69,152.4L60.55,145.91L80.73,153.24L101.59,174.77L121.77,142.94L142.62,148.96L163.48,158.93L183.66,155.76L204.52,166.89L245.56,136.88L266.41,140.65L285.92,127.72L347.81,85.08L368,102.42L388.85,111.17L409.71,117.06L429.89,110.13L450.75,83.93L470.93,96.51L491.78,94.33L512.64,85.96L531.48,90.32L552.33,103.01L572.51,81.84L593.37,88.6L613.55,92.43L634.41,98.55L655.26,91.43L675.44,101.16L696.3,125.94L716.48,122.4L737.34,109.23L758.19,114.37L777.03,119.45L797.89,107.76L818.07,112.3L838.92,113.13L859.11,109.1L879.96,109.62L900.82,112.33L921,108.04" style="vector-effect: non-scaling-stroke; fill: none; stroke: rgb(84, 110, 117); stroke-opacity: 1; stroke-width: 2px; opacity: 1;"/></g><g class="points"/><g class="text"/></g></g></g><g class="overplot"/><path class="xlines-above crisp" d="M0,0" style="fill: none;"/><path class="ylines-above crisp" d="M0,0" style="fill: none;"/><g class="overlines-above"/><g class="xaxislayer-above"><g class="xtick"><text text-anchor="middle" x="0" y="533" transform="translate(80,0)" style="font-family: 'Open Sans', verdana, arial, sans-serif; font-size: 12px; fill: rgb(42, 63, 95); fill-opacity: 1; white-space: pre; opacity: 1;">Jan 2019</text></g><g class="xtick"><text text-anchor="middle" x="0" y="533" style="font-family: 'Open Sans', verdana, arial, sans-serif; font-size: 12px; fill: rgb(42, 63, 95); fill-opacity: 1; white-space: pre; opacity: 1;" transform="translate(201.76999999999998,0)">Jul 2019</text></g><g class="xtick"><text text-anchor="middle" x="0" y="533" style="font-family: 'Open Sans', verdana, arial, sans-serif; font-size: 12px; fill: rgb(42, 63, 95); fill-opacity: 1; white-space: pre; opacity: 1;" transform="translate(325.56,0)">Jan 2020</text></g><g class="xtick"><text text-anchor="middle" x="0" y="533" style="font-family: 'Open Sans', verdana, arial, sans-serif; font-size: 12px; fill: rgb(42, 63, 95); fill-opacity: 1; white-space: pre; opacity: 1;" transform="translate(448,0)">Jul 2020</text></g><g class="xtick"><text text-anchor="middle" x="0" y="533" style="font-family: 'Open Sans', verdana, arial, sans-serif; font-size: 12px; fill: rgb(42, 63, 95); fill-opacity: 1; white-space: pre; opacity: 1;" transform="translate(571.78,0)">Jan 2021</text></g><g class="xtick"><text text-anchor="middle" x="0" y="533" style="font-family: 'Open Sans', verdana, arial, sans-serif; font-size: 12px; fill: rgb(42, 63, 95); fill-opacity: 1; white-space: pre; opacity: 1;" transform="translate(693.55,0)">Jul 2021</text></g><g class="xtick"><text text-anchor="middle" x="0" y="533" style="font-family: 'Open Sans', verdana, arial, sans-serif; font-size: 12px; fill: rgb(42, 63, 95); fill-opacity: 1; white-space: pre; opacity: 1;" transform="translate(817.34,0)">Jan 2022</text></g><g class="xtick"><text text-anchor="middle" x="0" y="533" style="font-family: 'Open Sans', verdana, arial, sans-serif; font-size: 12px; fill: rgb(42, 63, 95); fill-opacity: 1; white-space: pre; opacity: 1;" transform="translate(939.11,0)">Jul 2022</text></g></g><g class="yaxislayer-above"><g class="ytick"><text text-anchor="end" x="79" y="4.199999999999999" transform="translate(0,483.68)" style="font-family: 'Open Sans', verdana, arial, sans-serif; font-size: 12px; fill: rgb(42, 63, 95); fill-opacity: 1; white-space: pre; opacity: 1;">65</text></g><g class="ytick"><text text-anchor="end" x="79" y="4.199999999999999" style="font-family: 'Open Sans', verdana, arial, sans-serif; font-size: 12px; fill: rgb(42, 63, 95); fill-opacity: 1; white-space: pre; opacity: 1;" transform="translate(0,423.16)">70</text></g><g class="ytick"><text text-anchor="end" x="79" y="4.199999999999999" style="font-family: 'Open Sans', verdana, arial, sans-serif; font-size: 12px; fill: rgb(42, 63, 95); fill-opacity: 1; white-space: pre; opacity: 1;" transform="translate(0,362.63)">75</text></g><g class="ytick"><text text-anchor="end" x="79" y="4.199999999999999" style="font-family: 'Open Sans', verdana, arial, sans-serif; font-size: 12px; fill: rgb(42, 63, 95); fill-opacity: 1; white-space: pre; opacity: 1;" transform="translate(0,302.11)">80</text></g><g class="ytick"><text text-anchor="end" x="79" y="4.199999999999999" style="font-family: 'Open Sans', verdana, arial, sans-serif; font-size: 12px; fill: rgb(42, 63, 95); fill-opacity: 1; white-space: pre; opacity: 1;" transform="translate(0,241.58)">85</text></g><g class="ytick"><text text-anchor="end" x="79" y="4.199999999999999" style="font-family: 'Open Sans', verdana, arial, sans-serif; font-size: 12px; fill: rgb(42, 63, 95); fill-opacity: 1; white-space: pre; opacity: 1;" transform="translate(0,181.05)">90</text></g><g class="ytick"><text text-anchor="end" x="79" y="4.199999999999999" style="font-family: 'Open Sans', verdana, arial, sans-serif; font-size: 12px; fill: rgb(42, 63, 95); fill-opacity: 1; white-space: pre; opacity: 1;" transform="translate(0,120.53)">95</text></g><g class="ytick"><text text-anchor="end" x="79" y="4.199999999999999" style="font-family: 'Open Sans', verdana, arial, sans-serif; font-size: 12px; fill: rgb(42, 63, 95); fill-opacity: 1; white-space: pre; opacity: 1;" transform="translate(0,60)">100</text></g></g><g class="overaxes-above"/></g></g><g class="polarlayer"/><g class="smithlayer"/><g class="ternarylayer"/><g class="geolayer"/><g class="funnelarealayer"/><g class="pielayer"/><g class="iciclelayer"/><g class="treemaplayer"/><g class="sunburstlayer"/><g class="glimages"/><defs id="topdefs-358ab7"><g class="clips"/><clipPath id="legend358ab7"><rect width="169" height="200" x="0" y="0"/></clipPath></defs><g class="layer-above"><g class="imagelayer"/><g class="shapelayer"><path data-index="0" fill-rule="evenodd" d="M382.07,520H857.03V60H382.07Z" clip-path="url(#clip358ab7x)" style="opacity: 0.1; stroke: rgb(0, 0, 0); stroke-opacity: 0; fill: rgb(11, 31, 38); fill-opacity: 1; stroke-width: 0px;"/><path data-index="1" fill-rule="evenodd" d="M386.78,520H426.47V60H386.78Z" clip-path="url(#clip358ab7x)" style="opacity: 0.2; stroke: rgb(0, 0, 0); stroke-opacity: 0; fill: rgb(11, 31, 38); fill-opacity: 1; stroke-width: 0px;"/></g></g><g class="infolayer"><g class="legend" pointer-events="all" transform="translate(1019.4200000000001,60)"><rect class="bg" shape-rendering="crispEdges" width="169" height="200" x="0" y="0" style="stroke: rgb(68, 68, 68); stroke-opacity: 1; fill: rgb(255, 255, 255); fill-opacity: 1; stroke-width: 0px;"/><g class="scrollbox" transform="" clip-path="url(#legend358ab7)"><g class="groups" transform=""><g class="traces" transform="translate(0,14.5)" style="opacity: 1;"><text class="legendtext" text-anchor="start" x="40" y="4.680000000000001" style="font-family: 'Open Sans', verdana, arial, sans-serif; font-size: 12px; fill: rgb(42, 63, 95); fill-opacity: 1; white-space: pre;">wime_fahrplan</text><g class="layers" style="opacity: 1;"><g class="legendfill"/><g class="legendlines"><path class="js-line" d="M5,0h30" style="fill: none; stroke: rgb(11, 31, 38); stroke-opacity: 1; stroke-width: 2px;"/></g><g class="legendsymbols"><g class="legendpoints"/></g></g><rect class="legendtoggle" x="0" y="-9.5" width="163.875" height="19" style="fill: rgb(0, 0, 0); fill-opacity: 0;"/></g></g><g class="groups" transform=""><g class="traces" transform="translate(0,33.5)" style="opacity: 1;"><text class="legendtext" text-anchor="start" x="40" y="4.680000000000001" style="font-family: 'Open Sans', verdana, arial, sans-serif; font-size: 12px; fill: rgb(42, 63, 95); fill-opacity: 1; white-space: pre;">wime_sauberkeit</text><g class="layers" style="opacity: 1;"><g class="legendfill"/><g class="legendlines"><path class="js-line" d="M5,0h30" style="fill: none; stroke: rgb(63, 137, 166); stroke-opacity: 1; stroke-width: 2px;"/></g><g class="legendsymbols"><g class="legendpoints"/></g></g><rect class="legendtoggle" x="0" y="-9.5" width="163.875" height="19" style="fill: rgb(0, 0, 0); fill-opacity: 0;"/></g></g><g class="groups" transform=""><g class="traces" transform="translate(0,52.5)" style="opacity: 1;"><text class="legendtext" text-anchor="start" x="40" y="4.680000000000001" style="font-family: 'Open Sans', verdana, arial, sans-serif; font-size: 12px; fill: rgb(42, 63, 95); fill-opacity: 1; white-space: pre;">wime_puenktlich</text><g class="layers" style="opacity: 1;"><g class="legendfill"/><g class="legendlines"><path class="js-line" d="M5,0h30" style="fill: none; stroke: rgb(32, 73, 89); stroke-opacity: 1; stroke-width: 2px;"/></g><g class="legendsymbols"><g class="legendpoints"/></g></g><rect class="legendtoggle" x="0" y="-9.5" width="163.875" height="19" style="fill: rgb(0, 0, 0); fill-opacity: 0;"/></g></g><g class="groups" transform=""><g class="traces" transform="translate(0,71.5)" style="opacity: 1;"><text class="legendtext" text-anchor="start" x="40" y="4.680000000000001" style="font-family: 'Open Sans', verdana, arial, sans-serif; font-size: 12px; fill: rgb(42, 63, 95); fill-opacity: 1; white-space: pre;">wime_preis_leistung</text><g class="layers" style="opacity: 1;"><g class="legendfill"/><g class="legendlines"><path class="js-line" d="M5,0h30" style="fill: none; stroke: rgb(150, 198, 217); stroke-opacity: 1; stroke-width: 2px;"/></g><g class="legendsymbols"><g class="legendpoints"/></g></g><rect class="legendtoggle" x="0" y="-9.5" width="163.875" height="19" style="fill: rgb(0, 0, 0); fill-opacity: 0;"/></g></g><g class="groups" transform=""><g class="traces" transform="translate(0,90.5)" style="opacity: 1;"><text class="legendtext" text-anchor="start" x="40" y="4.680000000000001" style="font-family: 'Open Sans', verdana, arial, sans-serif; font-size: 12px; fill: rgb(42, 63, 95); fill-opacity: 1; white-space: pre;">wime_platzangebot</text><g class="layers" style="opacity: 1;"><g class="legendfill"/><g class="legendlines"><path class="js-line" d="M5,0h30" style="fill: none; stroke: rgb(208, 233, 242); stroke-opacity: 1; stroke-width: 2px;"/></g><g class="legendsymbols"><g class="legendpoints"/></g></g><rect class="legendtoggle" x="0" y="-9.5" width="163.875" height="19" style="fill: rgb(0, 0, 0); fill-opacity: 0;"/></g></g><g class="groups" transform=""><g class="traces" transform="translate(0,109.5)" style="opacity: 1;"><text class="legendtext" text-anchor="start" x="40" y="4.680000000000001" style="font-family: 'Open Sans', verdana, arial, sans-serif; font-size: 12px; fill: rgb(42, 63, 95); fill-opacity: 1; white-space: pre;">Durchschnitt</text><g class="layers" style="opacity: 1;"><g class="legendfill"/><g class="legendlines"><path class="js-line" d="M5,0h30" style="fill: none; stroke: rgb(66, 50, 58); stroke-opacity: 1; stroke-dasharray: 3px, 3px; stroke-width: 2px;"/></g><g class="legendsymbols"><g class="legendpoints"/></g></g><rect class="legendtoggle" x="0" y="-9.5" width="163.875" height="19" style="fill: rgb(0, 0, 0); fill-opacity: 0;"/></g></g><g class="groups" transform=""><g class="traces" transform="translate(0,128.5)" style="opacity: 1;"><text class="legendtext" text-anchor="start" x="40" y="4.680000000000001" style="font-family: 'Open Sans', verdana, arial, sans-serif; font-size: 12px; fill: rgb(42, 63, 95); fill-opacity: 1; white-space: pre;">wime_oes_fahrt</text><g class="layers" style="opacity: 1;"><g class="legendfill"/><g class="legendlines"><path class="js-line" d="M5,0h30" style="fill: none; stroke: rgb(108, 140, 125); stroke-opacity: 1; stroke-width: 2px;"/></g><g class="legendsymbols"><g class="legendpoints"/></g></g><rect class="legendtoggle" x="0" y="-9.5" width="163.875" height="19" style="fill: rgb(0, 0, 0); fill-opacity: 0;"/></g></g><g class="groups" transform=""><g class="traces" transform="translate(0,147.5)" style="opacity: 1;"><text class="legendtext" text-anchor="start" x="40" y="4.680000000000001" style="font-family: 'Open Sans', verdana, arial, sans-serif; font-size: 12px; fill: rgb(42, 63, 95); fill-opacity: 1; white-space: pre;">wime_komfort</text><g class="layers" style="opacity: 1;"><g class="legendfill"/><g class="legendlines"><path class="js-line" d="M5,0h30" style="fill: none; stroke: rgb(142, 179, 162); stroke-opacity: 1; stroke-width: 2px;"/></g><g class="legendsymbols"><g class="legendpoints"/></g></g><rect class="legendtoggle" x="0" y="-9.5" width="163.875" height="19" style="fill: rgb(0, 0, 0); fill-opacity: 0;"/></g></g><g class="groups" transform=""><g class="traces" transform="translate(0,166.5)" style="opacity: 1;"><text class="legendtext" text-anchor="start" x="40" y="4.680000000000001" style="font-family: 'Open Sans', verdana, arial, sans-serif; font-size: 12px; fill: rgb(42, 63, 95); fill-opacity: 1; white-space: pre;">wime_gesamtzuf</text><g class="layers" style="opacity: 1;"><g class="legendfill"/><g class="legendlines"><path class="js-line" d="M5,0h30" style="fill: none; stroke: rgb(197, 217, 186); stroke-opacity: 1; stroke-width: 2px;"/></g><g class="legendsymbols"><g class="legendpoints"/></g></g><rect class="legendtoggle" x="0" y="-9.5" width="163.875" height="19" style="fill: rgb(0, 0, 0); fill-opacity: 0;"/></g></g><g class="groups" transform=""><g class="traces" transform="translate(0,185.5)" style="opacity: 1;"><text class="legendtext" text-anchor="start" x="40" y="4.680000000000001" style="font-family: 'Open Sans', verdana, arial, sans-serif; font-size: 12px; fill: rgb(42, 63, 95); fill-opacity: 1; white-space: pre;">wime_personal</text><g class="layers" style="opacity: 1;"><g class="legendfill"/><g class="legendlines"><path class="js-line" d="M5,0h30" style="fill: none; stroke: rgb(84, 110, 117); stroke-opacity: 1; stroke-width: 2px;"/></g><g class="legendsymbols"><g class="legendpoints"/></g></g><rect class="legendtoggle" x="0" y="-9.5" width="163.875" height="19" style="fill: rgb(0, 0, 0); fill-opacity: 0;"/></g></g></g><rect class="scrollbar" rx="20" ry="3" width="0" height="0" x="0" y="0" style="fill: rgb(128, 139, 164); fill-opacity: 1;"/></g><g class="g-gtitle"><text class="gtitle" x="60" y="30" text-anchor="start" dy="0em" style="font-family: 'Open Sans', verdana, arial, sans-serif; font-size: 17px; fill: rgb(42, 63, 95); opacity: 1; font-weight: normal; white-space: pre;">Zufriedenheit mit verschiedenen Aspekten im zeitlichen Verlauf</text></g><g class="g-xtitle"/><g class="g-ytitle"><text class="ytitle" transform="rotate(-90,31.309375000000003,290)" x="31.309375000000003" y="290" text-anchor="middle" style="font-family: 'Open Sans', verdana, arial, sans-serif; font-size: 14px; fill: rgb(42, 63, 95); opacity: 1; font-weight: normal; white-space: pre;">Zufriedenheit</text></g><g class="annotation" data-index="0" style="opacity: 1;"><g class="annotation-text-g" transform="rotate(0,795.03,68)"><g class="cursor-pointer" transform="translate(733,60)"><rect class="bg" x="0.5" y="0.5" width="123" height="15" style="stroke-width: 1px; stroke: rgb(0, 0, 0); stroke-opacity: 0; fill: rgb(0, 0, 0); fill-opacity: 0;"/><text class="annotation-text" text-anchor="middle" x="61.953125" y="12" style="font-family: 'Open Sans', verdana, arial, sans-serif; font-size: 10px; fill: rgb(11, 31, 38); fill-opacity: 1; white-space: pre;">COVID-19 Massnahmen</text></g></g></g><g class="annotation" data-index="1" style="opacity: 1;"><g class="annotation-text-g" transform="rotate(0,403.78,68)"><g class="cursor-pointer" transform="translate(387,60)"><rect class="bg" x="0.5" y="0.5" width="33" height="15" style="stroke-width: 1px; stroke: rgb(0, 0, 0); stroke-opacity: 0; fill: rgb(0, 0, 0); fill-opacity: 0;"/><text class="annotation-text" text-anchor="middle" x="16.765625" y="12" style="font-family: 'Open Sans', verdana, arial, sans-serif; font-size: 10px; fill: rgb(11, 31, 38); fill-opacity: 1; white-space: pre;">Pause</text></g></g></g></g></svg>